<?xml version="1.0" encoding="UTF-8"?>
<svg id="Layer_2" data-name="Layer 2" xmlns="http://www.w3.org/2000/svg" viewBox="0 0 183.52 298.95">
  <defs>
    <style>
      .cls-1 {
        letter-spacing: -.04em;
      }

      .cls-2 {
        letter-spacing: 0em;
      }

      .cls-3 {
        letter-spacing: -.02em;
      }

      .cls-4 {
        letter-spacing: -.05em;
      }

      .cls-5 {
        letter-spacing: -.01em;
      }

      .cls-6 {
        letter-spacing: .01em;
      }

      .cls-7 {
        letter-spacing: -.02em;
      }

      .cls-8 {
        letter-spacing: .02em;
      }

      .cls-9 {
        letter-spacing: -.01em;
      }

      .cls-10 {
        letter-spacing: 0em;
      }

      .cls-11 {
        letter-spacing: 0em;
      }

      .cls-12 {
        letter-spacing: 0em;
      }

      .cls-13 {
        letter-spacing: 0em;
      }

      .cls-14 {
        letter-spacing: 0em;
      }

      .cls-15 {
        font-family: MyriadPro-Regular, 'Myriad Pro';
        font-size: 15.13px;
      }

      .cls-15, .cls-16 {
        fill: #000;
      }

      .cls-17 {
        letter-spacing: -.01em;
      }

      .cls-18 {
        letter-spacing: .03em;
      }

      .cls-19 {
        letter-spacing: .02em;
      }

      .cls-16 {
        font-family: CenturyGothic-Bold, 'Century Gothic';
        font-size: 18.02px;
        font-weight: 700;
      }

      .cls-20 {
        letter-spacing: .03em;
      }

      .cls-21 {
        letter-spacing: -.02em;
      }

      .cls-22 {
        letter-spacing: 0em;
      }

      .cls-23 {
        letter-spacing: 0em;
      }

      .cls-24 {
        letter-spacing: .01em;
      }

      .cls-25 {
        letter-spacing: 0em;
      }

      .cls-26 {
        letter-spacing: .02em;
      }

      .cls-27 {
        fill: #fff;
        stroke-width: 0px;
      }

      .cls-28 {
        letter-spacing: 0em;
      }

      .cls-29 {
        letter-spacing: 0em;
      }

      .cls-30 {
        letter-spacing: -.04em;
      }

      .cls-31 {
        letter-spacing: 0em;
      }
    </style>
  </defs>
  <g id="BackgroundTiles">
    <g>
      <rect class="cls-27" x="0" y="0" width="183.52" height="278.49" transform="translate(183.52 278.49) rotate(-180)"/>
      <text class="cls-16" transform="translate(8.42 19.35)"><tspan x="0" y="0">Company contacts</tspan></text>
      <text class="cls-15" transform="translate(10.09 40.98)"><tspan x="0" y="0">Cha</tspan><tspan class="cls-28" x="24.46" y="0">r</tspan><tspan x="29.47" y="0">li</tspan><tspan class="cls-18" x="36.58" y="0">e</tspan><tspan class="cls-6" x="44.59" y="0">-</tspan><tspan x="49.44" y="0">C.</tspan><tspan class="cls-14" x="61.35" y="0">E</tspan><tspan x="68.73" y="0">.O</tspan><tspan class="cls-26" x="0" y="18.16">K</tspan><tspan x="8.44" y="18.16">a</tspan><tspan class="cls-25" x="15.73" y="18.16">r</tspan><tspan x="20.74" y="18.16">l Ja</tspan><tspan class="cls-2" x="40.41" y="18.16">c</tspan><tspan class="cls-10" x="47.1" y="18.16">obsen</tspan><tspan class="cls-26" x="0" y="36.31">K</tspan><tspan x="8.44" y="36.31">a</tspan><tspan class="cls-17" x="15.73" y="36.31">r</tspan><tspan x="20.53" y="36.31">en-HR</tspan><tspan class="cls-5" x="0" y="54.47">A</tspan><tspan x="9.08" y="54.47">dolf - </tspan><tspan class="cls-13" x="44.96" y="54.47">G</tspan><tspan class="cls-10" x="54.86" y="54.47">as supplier</tspan><tspan x="0" y="72.62">John </tspan><tspan class="cls-21" x="33.91" y="72.62">P</tspan><tspan class="cls-23" x="41.58" y="72.62">ope </tspan><tspan class="cls-24" x="0" y="90.78">M</tspan><tspan class="cls-4" x="12.35" y="90.78">r</tspan><tspan x="16.49" y="90.78">. </tspan><tspan class="cls-12" x="22.83" y="90.78">M</tspan><tspan x="35.08" y="90.78">eeseeks</tspan><tspan class="cls-31" x="0" y="108.93">A</tspan><tspan class="cls-8" x="9.21" y="108.93">r</tspan><tspan x="14.52" y="108.93">thas </tspan><tspan class="cls-12" x="44.42" y="108.93">M</tspan><tspan x="56.67" y="108.93">enethil</tspan><tspan class="cls-26" x="0" y="127.09">K</tspan><tspan x="8.44" y="127.09">aptajn </tspan><tspan class="cls-3" x="51.92" y="127.09">P</tspan><tspan class="cls-25" x="59.73" y="127.09">r</tspan><tspan x="64.74" y="127.09">i</tspan><tspan class="cls-2" x="68.28" y="127.09">c</tspan><tspan x="74.97" y="127.09">e</tspan><tspan x="0" y="145.25">Jake </tspan><tspan class="cls-21" x="30.77" y="145.25">P</tspan><tspan x="38.44" y="145.25">e</tspan><tspan class="cls-29" x="46.02" y="145.25">r</tspan><tspan class="cls-10" x="50.9" y="145.25">alta</tspan><tspan class="cls-24" x="0" y="163.4">M</tspan><tspan x="12.35" y="163.4">is</tspan><tspan class="cls-22" x="21.88" y="163.4">t</tspan><tspan x="27.02" y="163.4">y</tspan><tspan class="cls-30" x="34.15" y="163.4"> </tspan><tspan class="cls-7" x="36.81" y="163.4">W</tspan><tspan x="49.37" y="163.4">illiams</tspan><tspan class="cls-9" x="0" y="181.56">L</tspan><tspan class="cls-23" x="6.93" y="181.56">ea S</tspan><tspan class="cls-19" x="32.47" y="181.56">k</tspan><tspan class="cls-10" x="39.82" y="181.56">ii</tspan><tspan class="cls-14" x="46.9" y="181.56">w</tspan><tspan x="57.98" y="181.56">alker</tspan><tspan x="0" y="199.71">Simba</tspan><tspan class="cls-1" x="39.52" y="199.71"> </tspan><tspan class="cls-5" x="42.11" y="199.71">T</tspan><tspan x="49.44" y="199.71">imons</tspan><tspan class="cls-25" x="0" y="217.87">D</tspan><tspan x="10.14" y="217.87">o</tspan><tspan class="cls-20" x="18.44" y="217.87">r</tspan><tspan x="23.77" y="217.87">y </tspan><tspan class="cls-11" x="34.1" y="217.87">S</tspan><tspan x="41.44" y="217.87">vimmings</tspan></text>
    </g>
  </g>
</svg>