<?xml version="1.0" encoding="UTF-8"?>
<svg id="Layer_2" data-name="Layer 2" xmlns="http://www.w3.org/2000/svg" viewBox="0 0 128 208.5">
  <defs>
    <style>
      .cls-1 {
        letter-spacing: 0em;
      }

      .cls-2 {
        letter-spacing: -.02em;
      }

      .cls-3 {
        letter-spacing: -.04em;
      }

      .cls-4 {
        letter-spacing: .03em;
      }

      .cls-5 {
        letter-spacing: .01em;
      }

      .cls-6 {
        letter-spacing: 0em;
      }

      .cls-7 {
        letter-spacing: 0em;
      }

      .cls-8 {
        letter-spacing: 0em;
      }

      .cls-9 {
        letter-spacing: -.01em;
      }

      .cls-10 {
        letter-spacing: -.04em;
      }

      .cls-11 {
        letter-spacing: .02em;
      }

      .cls-12 {
        letter-spacing: 0em;
      }

      .cls-13 {
        letter-spacing: .02em;
      }

      .cls-14 {
        letter-spacing: 0em;
      }

      .cls-15 {
        letter-spacing: 0em;
      }

      .cls-16 {
        letter-spacing: -.01em;
      }

      .cls-17 {
        letter-spacing: 0em;
      }

      .cls-18 {
        font-family: CenturyGothic-Bold, 'Century Gothic';
        font-size: 12.57px;
        font-weight: 700;
      }

      .cls-18, .cls-19 {
        fill: #000;
      }

      .cls-20 {
        letter-spacing: -.03em;
      }

      .cls-21 {
        letter-spacing: 0em;
      }

      .cls-22 {
        letter-spacing: 0em;
      }

      .cls-23 {
        letter-spacing: -.05em;
      }

      .cls-24 {
        letter-spacing: -.02em;
      }

      .cls-25 {
        letter-spacing: 0em;
      }

      .cls-26 {
        letter-spacing: 0em;
      }

      .cls-27 {
        fill: #fff;
        stroke-width: 0px;
      }

      .cls-28 {
        letter-spacing: 0em;
      }

      .cls-29 {
        letter-spacing: .02em;
      }

      .cls-30 {
        letter-spacing: -.02em;
      }

      .cls-19 {
        font-family: MyriadPro-Regular, 'Myriad Pro';
        font-size: 10.55px;
      }
    </style>
  </defs>
  <g id="BackgroundTiles">
    <g>
      <rect class="cls-27" x="0" y="0" width="128" height="194.24" transform="translate(128 194.24) rotate(-180)"/>
      <text class="cls-18" transform="translate(5.87 13.5)"><tspan x="0" y="0">Company contacts</tspan></text>
      <text class="cls-19" transform="translate(7.03 28.58)"><tspan x="0" y="0">Cha</tspan><tspan class="cls-12" x="17.06" y="0">r</tspan><tspan x="20.56" y="0">lie - C.</tspan><tspan class="cls-28" x="46.82" y="0">E</tspan><tspan x="51.97" y="0">.O</tspan><tspan class="cls-13" x="0" y="12.66">K</tspan><tspan class="cls-15" x="5.89" y="12.66">a</tspan><tspan class="cls-12" x="10.97" y="12.66">r</tspan><tspan x="14.47" y="12.66">l Ja</tspan><tspan class="cls-14" x="28.19" y="12.66">c</tspan><tspan x="32.85" y="12.66">obsen</tspan><tspan class="cls-13" x="0" y="25.33">K</tspan><tspan class="cls-15" x="5.89" y="25.33">a</tspan><tspan class="cls-22" x="10.97" y="25.33">r</tspan><tspan x="14.32" y="25.33">en f</tspan><tspan class="cls-22" x="30.78" y="25.33">r</tspan><tspan class="cls-15" x="34.13" y="25.33">om HR</tspan><tspan class="cls-9" x="0" y="37.99">A</tspan><tspan x="6.33" y="37.99">dolf - </tspan><tspan class="cls-21" x="31.36" y="37.99">G</tspan><tspan x="38.26" y="37.99">as supplier</tspan><tspan x="0" y="50.65">John </tspan><tspan class="cls-30" x="23.65" y="50.65">P</tspan><tspan x="29" y="50.65">ope </tspan><tspan class="cls-5" x="0" y="63.32">M</tspan><tspan class="cls-23" x="8.61" y="63.32">r</tspan><tspan x="11.5" y="63.32">. </tspan><tspan class="cls-7" x="15.92" y="63.32">M</tspan><tspan x="24.47" y="63.32">eeseeks</tspan><tspan class="cls-1" x="0" y="75.98">A</tspan><tspan class="cls-29" x="6.43" y="75.98">r</tspan><tspan x="10.13" y="75.98">thas </tspan><tspan class="cls-7" x="30.98" y="75.98">M</tspan><tspan class="cls-25" x="39.53" y="75.98">enethil</tspan><tspan class="cls-13" x="0" y="88.64">K</tspan><tspan class="cls-15" x="5.89" y="88.64">aptajn </tspan><tspan class="cls-2" x="36.22" y="88.64">P</tspan><tspan class="cls-8" x="41.66" y="88.64">r</tspan><tspan class="cls-15" x="45.15" y="88.64">i</tspan><tspan class="cls-14" x="47.62" y="88.64">c</tspan><tspan class="cls-25" x="52.29" y="88.64">e</tspan><tspan x="0" y="101.3">Jake </tspan><tspan class="cls-20" x="21.46" y="101.3">P</tspan><tspan x="26.81" y="101.3">e</tspan><tspan class="cls-26" x="32.1" y="101.3">r</tspan><tspan class="cls-15" x="35.5" y="101.3">alta</tspan><tspan class="cls-5" x="0" y="113.97">M</tspan><tspan class="cls-15" x="8.61" y="113.97">is</tspan><tspan class="cls-17" x="15.26" y="113.97">t</tspan><tspan x="18.85" y="113.97">y</tspan><tspan class="cls-3" x="23.82" y="113.97"> </tspan><tspan class="cls-24" x="25.67" y="113.97">W</tspan><tspan x="34.43" y="113.97">illiams</tspan><tspan class="cls-16" x="0" y="126.63">L</tspan><tspan x="4.83" y="126.63">ea S</tspan><tspan class="cls-11" x="22.65" y="126.63">k</tspan><tspan class="cls-15" x="27.77" y="126.63">ii</tspan><tspan class="cls-28" x="32.71" y="126.63">w</tspan><tspan x="40.44" y="126.63">alker</tspan><tspan x="0" y="139.29">Simba</tspan><tspan class="cls-10" x="27.56" y="139.29"> </tspan><tspan class="cls-9" x="29.37" y="139.29">T</tspan><tspan x="34.49" y="139.29">imons</tspan><tspan class="cls-8" x="0" y="151.96">D</tspan><tspan x="7.07" y="151.96">o</tspan><tspan class="cls-4" x="12.86" y="151.96">r</tspan><tspan x="16.58" y="151.96">y Keep </tspan><tspan class="cls-6" x="48.32" y="151.96">S</tspan><tspan class="cls-15" x="53.44" y="151.96">vimming</tspan></text>
    </g>
  </g>
</svg>