<?xml version="1.0" encoding="UTF-8"?>
<svg id="Layer_2" data-name="Layer 2" xmlns="http://www.w3.org/2000/svg" viewBox="0 0 65 97">
  <defs>
    <style>
      .cls-1 {
        fill: #000;
      }

      .cls-1, .cls-2, .cls-3 {
        stroke-width: 0px;
      }

      .cls-4, .cls-5, .cls-6 {
        stroke: #000;
        stroke-miterlimit: 10;
      }

      .cls-4, .cls-3 {
        fill: #fff;
      }

      .cls-5 {
        fill: none;
      }

      .cls-2, .cls-6 {
        fill: red;
      }
    </style>
  </defs>
  <g id="Assets">
    <g>
      <rect class="cls-3" x="32.5" y="64.5" width="32" height="32" transform="translate(97 161) rotate(-180)"/>
      <rect class="cls-3" x="32.5" y="32.5" width="32" height="32" transform="translate(97 97) rotate(-180)"/>
      <rect class="cls-3" x="32.5" y=".5" width="32" height="32" transform="translate(97 33) rotate(-180)"/>
      <rect class="cls-3" x=".5" y="64.5" width="32" height="32" transform="translate(33 161) rotate(-180)"/>
      <rect class="cls-3" x=".5" y="32.5" width="32" height="32" transform="translate(33 97) rotate(-180)"/>
      <rect class="cls-3" x=".5" y=".5" width="32" height="32" transform="translate(33 33) rotate(-180)"/>
      <rect class="cls-4" x="13.79" y="74.55" width="37.42" height="5.95"/>
      <rect class="cls-4" x="13.79" y="84.3" width="37.42" height="5.95"/>
      <rect class="cls-5" x=".5" y=".5" width="64" height="96"/>
      <circle class="cls-4" cx="32.5" cy="37.04" r="9"/>
      <rect class="cls-4" x="23.5" y="36.24" width="18" height="13.18"/>
      <circle class="cls-6" cx="32.5" cy="42.94" r="1.38"/>
      <g>
        <rect class="cls-1" x="26.96" y="39.34" width="1.04" height="7.2" transform="translate(70.42 15.46) rotate(90)"/>
        <rect class="cls-1" x="37.38" y="39.34" width="1.04" height="7.2" transform="translate(80.84 5.04) rotate(90)"/>
        <rect class="cls-2" x="27.74" y="39.05" width=".21" height="7.77" transform="translate(70.79 15.09) rotate(90)"/>
        <rect class="cls-2" x="36.97" y="38.98" width=".21" height="7.91" transform="translate(80.01 5.87) rotate(90)"/>
      </g>
    </g>
  </g>
</svg>