<?xml version="1.0" encoding="UTF-8"?>
<svg id="Layer_2" data-name="Layer 2" xmlns="http://www.w3.org/2000/svg" viewBox="0 0 32.07 31.93">
  <defs>
    <style>
      .cls-1 {
        fill: #000;
      }

      .cls-1, .cls-2, .cls-3, .cls-4, .cls-5, .cls-6, .cls-7, .cls-8 {
        stroke-width: 0px;
      }

      .cls-2 {
        fill: #ff0;
      }

      .cls-3 {
        fill: aqua;
      }

      .cls-4 {
        fill: #f7931e;
      }

      .cls-5 {
        fill: none;
      }

      .cls-6 {
        fill: #662d91;
      }

      .cls-9 {
        stroke: #000;
        stroke-miterlimit: 10;
        stroke-width: .25px;
      }

      .cls-9, .cls-8 {
        fill: #fff;
      }

      .cls-7 {
        fill: red;
      }
    </style>
  </defs>
  <g id="Assets">
    <g>
      <rect class="cls-8" x="0" y="15.15" width="32" height="16.78" transform="translate(32 47.07) rotate(-180)"/>
      <rect class="cls-6" x="6.63" y="6.44" width="18.97" height="17.22" transform="translate(16.86 37.08) rotate(-135)"/>
      <rect class="cls-1" x="-8.76" y="21.16" width="19.53" height="2" transform="translate(23.16 21.16) rotate(90)"/>
      <rect class="cls-1" x="21.31" y="21.16" width="19.53" height="2" transform="translate(53.23 -8.91) rotate(90)"/>
      <rect class="cls-1" x="0" y="29.93" width="32" height="2"/>
      <line class="cls-5" x1="14.03" y1="15.3" x2="14.03" y2="15.3"/>
      <g>
        <line class="cls-9" x1="16.09" y1="7.97" x2="12.46" y2="16.87"/>
        <line class="cls-9" x1="16.07" y1="7.97" x2="19.71" y2="16.87"/>
        <line class="cls-9" x1="16.11" y1="22.01" x2="12.48" y2="13.11"/>
        <line class="cls-9" x1="16.09" y1="22.01" x2="19.73" y2="13.11"/>
      </g>
      <ellipse class="cls-2" cx="16.07" cy="15" rx="1.51" ry="5.09"/>
      <ellipse class="cls-4" cx="16.11" cy="15.08" rx="1.35" ry="4.58"/>
      <ellipse class="cls-7" cx="16.07" cy="15.2" rx="1.07" ry="3.6"/>
      <ellipse class="cls-1" cx="16.07" cy="15.08" rx="1.07" ry=".98"/>
      <g>
        <rect class="cls-3" x="3.9" y="14.42" width="1.49" height=".14" transform="translate(5.4 -.71) rotate(20.62)"/>
        <rect class="cls-3" x="3.85" y="14.79" width="1.49" height=".13" transform="translate(-1.54 .57) rotate(-6.07)"/>
      </g>
      <g>
        <rect class="cls-3" x="3.66" y="15" width="1.49" height=".14" transform="translate(-.45 .14) rotate(-1.71)"/>
        <rect class="cls-3" x="3.74" y="15.36" width="1.49" height=".13" transform="translate(-6.8 3.99) rotate(-28.4)"/>
      </g>
      <g>
        <rect class="cls-3" x="3.93" y="15.43" width="1.49" height=".14" transform="translate(-6.42 3.71) rotate(-26.47)"/>
        <rect class="cls-3" x="4.16" y="15.72" width="1.49" height=".13" transform="translate(-10.67 10.24) rotate(-53.15)"/>
      </g>
      <g>
        <rect class="cls-3" x="4.25" y="15.71" width="1.49" height=".14" transform="translate(-8.42 6.09) rotate(-36.59)"/>
        <rect class="cls-3" x="4.52" y="15.96" width="1.49" height=".13" transform="translate(-11.41 13.52) rotate(-63.28)"/>
      </g>
      <g>
        <rect class="cls-3" x="4.63" y="16.04" width="1.49" height=".14" transform="translate(-9.39 7.72) rotate(-41.96)"/>
        <rect class="cls-3" x="4.92" y="16.26" width="1.49" height=".13" transform="translate(-11.6 15.66) rotate(-68.64)"/>
      </g>
      <g>
        <rect class="cls-3" x="5.03" y="16.35" width="1.49" height=".14" transform="translate(-9.47 8.02) rotate(-41.77)"/>
        <rect class="cls-3" x="5.32" y="16.58" width="1.49" height=".13" transform="translate(-11.64 16.18) rotate(-68.45)"/>
      </g>
      <g>
        <rect class="cls-3" x="5.4" y="16.7" width="1.49" height=".14" transform="translate(-9.29 7.78) rotate(-39.68)"/>
        <rect class="cls-3" x="5.68" y="16.94" width="1.49" height=".13" transform="translate(-11.73 16.07) rotate(-66.37)"/>
      </g>
      <g>
        <rect class="cls-3" x="5.83" y="17.03" width="1.49" height=".14" transform="translate(-8.45 6.62) rotate(-34.07)"/>
        <rect class="cls-3" x="6.09" y="17.29" width="1.49" height=".13" transform="translate(-11.65 14.84) rotate(-60.75)"/>
      </g>
      <g>
        <rect class="cls-3" x="6.21" y="17.39" width="1.49" height=".14" transform="translate(-9.24 7.91) rotate(-37.74)"/>
        <rect class="cls-3" x="6.48" y="17.64" width="1.49" height=".13" transform="translate(-11.86 16.58) rotate(-64.43)"/>
      </g>
      <g>
        <rect class="cls-3" x="26.66" y="15.01" width="1.49" height=".14" transform="translate(54.96 29.87) rotate(179.39)"/>
        <rect class="cls-3" x="26.59" y="15.38" width="1.49" height=".13" transform="translate(45.09 41.33) rotate(-153.92)"/>
      </g>
      <g>
        <rect class="cls-3" x="26.27" y="15.37" width="1.49" height=".14" transform="translate(49.93 36.49) rotate(-167.19)"/>
        <rect class="cls-3" x="26.12" y="15.71" width="1.49" height=".13" transform="translate(37.56 45.04) rotate(-140.5)"/>
      </g>
      <g>
        <rect class="cls-3" x="25.97" y="15.66" width="1.49" height=".14" transform="translate(44.9 40.84) rotate(-156.4)"/>
        <rect class="cls-3" x="25.76" y="15.97" width="1.49" height=".13" transform="translate(31.11 46.67) rotate(-129.71)"/>
      </g>
      <g>
        <rect class="cls-3" x="25.65" y="16" width="1.49" height=".14" transform="translate(36.34 45.34) rotate(-140.1)"/>
        <rect class="cls-3" x="25.37" y="16.24" width="1.49" height=".13" transform="translate(21.53 46.74) rotate(-113.41)"/>
      </g>
      <g>
        <rect class="cls-3" x="25.26" y="16.33" width="1.49" height=".14" transform="translate(35.53 45.64) rotate(-140.29)"/>
        <rect class="cls-3" x="24.98" y="16.57" width="1.49" height=".13" transform="translate(20.78 46.87) rotate(-113.6)"/>
      </g>
      <g>
        <rect class="cls-3" x="24.91" y="16.7" width="1.49" height=".14" transform="translate(35.74 45.71) rotate(-142.38)"/>
        <rect class="cls-3" x="24.63" y="16.94" width="1.49" height=".13" transform="translate(21.05 47.25) rotate(-115.69)"/>
      </g>
      <g>
        <rect class="cls-3" x="24.49" y="17.04" width="1.49" height=".14" transform="translate(37.56 45) rotate(-147.99)"/>
        <rect class="cls-3" x="24.24" y="17.31" width="1.49" height=".13" transform="translate(23.11 47.75) rotate(-121.3)"/>
      </g>
      <g>
        <rect class="cls-3" x="24.13" y="17.42" width="1.49" height=".14" transform="translate(34.87 46.2) rotate(-144.31)"/>
        <rect class="cls-3" x="23.86" y="17.67" width="1.49" height=".13" transform="translate(20.29 47.76) rotate(-117.63)"/>
      </g>
      <g>
        <rect class="cls-3" x="23.81" y="17.78" width="1.49" height=".14" transform="translate(34.58 46.5) rotate(-145.29)"/>
        <rect class="cls-3" x="23.55" y="18.04" width="1.49" height=".13" transform="translate(20.02 48.1) rotate(-118.6)"/>
      </g>
      <g>
        <rect class="cls-3" x="23.38" y="18.13" width="1.49" height=".14" transform="translate(32.52 47.23) rotate(-143.17)"/>
        <rect class="cls-3" x="23.11" y="18.38" width="1.49" height=".13" transform="translate(17.98 48.02) rotate(-116.49)"/>
      </g>
      <g>
        <rect class="cls-3" x="23.13" y="18.6" width="1.49" height=".14" transform="translate(31.81 47.93) rotate(-143.22)"/>
        <rect class="cls-3" x="22.85" y="18.85" width="1.49" height=".13" transform="translate(17.21 48.49) rotate(-116.54)"/>
      </g>
      <g>
        <rect class="cls-3" x="22.76" y="18.9" width="1.49" height=".14" transform="translate(30.66 48.32) rotate(-142.63)"/>
        <rect class="cls-3" x="22.48" y="19.15" width="1.49" height=".13" transform="translate(16.11 48.51) rotate(-115.95)"/>
      </g>
      <g>
        <rect class="cls-3" x="22.36" y="19.2" width="1.49" height=".14" transform="translate(30.52 48.42) rotate(-144.11)"/>
        <rect class="cls-3" x="22.09" y="19.45" width="1.49" height=".13" transform="translate(16.03 48.77) rotate(-117.43)"/>
      </g>
      <g>
        <rect class="cls-3" x="22.04" y="19.66" width="1.49" height=".14" transform="translate(30.61 48.84) rotate(-145.92)"/>
        <rect class="cls-3" x="21.78" y="19.92" width="1.49" height=".13" transform="translate(16.09 49.4) rotate(-119.23)"/>
      </g>
      <g>
        <rect class="cls-3" x="21.55" y="19.9" width="1.49" height=".14" transform="translate(28.44 49.27) rotate(-143.69)"/>
        <rect class="cls-3" x="21.28" y="20.15" width="1.49" height=".13" transform="translate(14.01 49.03) rotate(-117.01)"/>
      </g>
      <g>
        <rect class="cls-3" x="21.11" y="20.29" width="1.49" height=".14" transform="translate(28.38 49.51) rotate(-145.6)"/>
        <rect class="cls-3" x="20.85" y="20.55" width="1.49" height=".13" transform="translate(13.98 49.49) rotate(-118.91)"/>
      </g>
      <g>
        <rect class="cls-3" x="20.67" y="20.64" width="1.49" height=".14" transform="translate(26.83 50.01) rotate(-144.52)"/>
        <rect class="cls-3" x="20.4" y="20.9" width="1.49" height=".13" transform="translate(12.48 49.45) rotate(-117.83)"/>
      </g>
      <g>
        <rect class="cls-3" x="20.27" y="21.07" width="1.49" height=".14" transform="translate(26.63 50.41) rotate(-146.02)"/>
        <rect class="cls-3" x="20.01" y="21.33" width="1.49" height=".13" transform="translate(12.27 49.97) rotate(-119.33)"/>
      </g>
      <g>
        <rect class="cls-3" x="19.89" y="21.52" width="1.49" height=".14" transform="translate(25.38 51.07) rotate(-145.42)"/>
        <rect class="cls-3" x="19.63" y="21.78" width="1.49" height=".13" transform="translate(11.02 50.21) rotate(-118.73)"/>
      </g>
      <g>
        <rect class="cls-3" x="19.59" y="21.96" width="1.49" height=".14" transform="translate(22.77 51.91) rotate(-141.94)"/>
        <rect class="cls-3" x="19.31" y="22.2" width="1.49" height=".13" transform="translate(8.47 49.91) rotate(-115.25)"/>
      </g>
      <g>
        <rect class="cls-3" x="19.13" y="22.35" width="1.49" height=".14" transform="translate(22.61 52.25) rotate(-143.69)"/>
        <rect class="cls-3" x="18.86" y="22.6" width="1.49" height=".13" transform="translate(8.31 50.42) rotate(-117.01)"/>
      </g>
      <g>
        <rect class="cls-3" x="18.62" y="22.83" width="1.49" height=".14" transform="translate(21.7 52.8) rotate(-144.23)"/>
        <rect class="cls-3" x="18.35" y="23.08" width="1.49" height=".13" transform="translate(7.4 50.79) rotate(-117.55)"/>
      </g>
      <g>
        <rect class="cls-3" x="18.15" y="23.37" width="1.49" height=".14" transform="translate(19.85 53.54) rotate(-142.96)"/>
        <rect class="cls-3" x="17.88" y="23.62" width="1.49" height=".13" transform="translate(5.62 50.87) rotate(-116.27)"/>
      </g>
      <g>
        <rect class="cls-3" x="17.68" y="23.94" width="1.49" height=".14" transform="translate(18.3 54.27) rotate(-142.25)"/>
        <rect class="cls-3" x="17.41" y="24.18" width="1.49" height=".13" transform="translate(4.11 51.08) rotate(-115.56)"/>
      </g>
      <g>
        <rect class="cls-3" x="17.09" y="24.5" width="1.49" height=".14" transform="translate(17.19 54.92) rotate(-142.78)"/>
        <rect class="cls-3" x="16.82" y="24.74" width="1.49" height=".13" transform="translate(3.01 51.5) rotate(-116.1)"/>
      </g>
      <g>
        <rect class="cls-3" x="16.61" y="25.11" width="1.49" height=".14" transform="translate(16.03 55.73) rotate(-142.94)"/>
        <rect class="cls-3" x="16.33" y="25.36" width="1.49" height=".13" transform="translate(1.83 51.99) rotate(-116.26)"/>
      </g>
      <g>
        <rect class="cls-3" x="16.19" y="25.67" width="1.49" height=".14" transform="translate(8.1 55.25) rotate(-129.99)"/>
        <rect class="cls-3" x="15.87" y="25.85" width="1.49" height=".13" transform="translate(-4.78 48.05) rotate(-103.3)"/>
      </g>
      <g>
        <rect class="cls-3" x="15.83" y="3.91" width="1.49" height=".14" transform="translate(26.59 -9.81) rotate(112.5)"/>
        <rect class="cls-3" x="16.13" y="4.12" width="1.49" height=".13" transform="translate(32.38 -3.68) rotate(139.19)"/>
      </g>
      <g>
        <rect class="cls-3" x="16.12" y="4.25" width="1.49" height=".14" transform="translate(27.25 -9.65) rotate(112.23)"/>
        <rect class="cls-3" x="16.43" y="4.46" width="1.49" height=".13" transform="translate(33.09 -3.34) rotate(138.92)"/>
      </g>
      <g>
        <rect class="cls-3" x="16.47" y="4.61" width="1.49" height=".14" transform="translate(28.91 -8.78) rotate(115.78)"/>
        <rect class="cls-3" x="16.76" y="4.84" width="1.49" height=".13" transform="translate(34.37 -1.87) rotate(142.46)"/>
      </g>
      <g>
        <rect class="cls-3" x="16.8" y="4.95" width="1.49" height=".14" transform="translate(32.53 -5.39) rotate(129.22)"/>
        <rect class="cls-3" x="17.03" y="5.24" width="1.49" height=".13" transform="translate(36.17 2.9) rotate(155.9)"/>
      </g>
      <g>
        <rect class="cls-3" x="17.16" y="5.3" width="1.49" height=".14" transform="translate(33 -5.66) rotate(127.13)"/>
        <rect class="cls-3" x="17.41" y="5.58" width="1.49" height=".13" transform="translate(36.94 2.71) rotate(153.82)"/>
      </g>
      <g>
        <rect class="cls-3" x="17.51" y="5.72" width="1.49" height=".14" transform="translate(32.74 -6.74) rotate(121.52)"/>
        <rect class="cls-3" x="17.78" y="5.98" width="1.49" height=".13" transform="translate(37.46 1.42) rotate(148.2)"/>
      </g>
      <g>
        <rect class="cls-3" x="17.89" y="6.08" width="1.49" height=".14" transform="translate(34.4 -5.53) rotate(125.19)"/>
        <rect class="cls-3" x="18.14" y="6.35" width="1.49" height=".13" transform="translate(38.57 3.18) rotate(151.88)"/>
      </g>
      <g>
        <rect class="cls-3" x="18.26" y="6.39" width="1.49" height=".14" transform="translate(35.03 -5.61) rotate(124.22)"/>
        <rect class="cls-3" x="18.51" y="6.66" width="1.49" height=".13" transform="translate(39.36 3.24) rotate(150.91)"/>
      </g>
      <g>
        <rect class="cls-3" x="18.61" y="6.82" width="1.49" height=".14" transform="translate(36.37 -4.62) rotate(126.33)"/>
        <rect class="cls-3" x="18.86" y="7.1" width="1.49" height=".13" transform="translate(40.32 4.66) rotate(153.02)"/>
      </g>
      <g>
        <rect class="cls-3" x="19.09" y="7.07" width="1.49" height=".14" transform="translate(37.32 -4.62) rotate(126.28)"/>
        <rect class="cls-3" x="19.34" y="7.34" width="1.49" height=".13" transform="translate(41.34 4.89) rotate(152.97)"/>
      </g>
      <g>
        <rect class="cls-3" x="19.39" y="7.44" width="1.49" height=".14" transform="translate(38.22 -4.09) rotate(126.88)"/>
        <rect class="cls-3" x="19.64" y="7.72" width="1.49" height=".13" transform="translate(42.09 5.68) rotate(153.56)"/>
      </g>
      <g>
        <rect class="cls-3" x="19.69" y="7.83" width="1.49" height=".14" transform="translate(38.71 -4.17) rotate(125.4)"/>
        <rect class="cls-3" x="19.94" y="8.11" width="1.49" height=".13" transform="translate(42.79 5.71) rotate(152.08)"/>
      </g>
      <g>
        <rect class="cls-3" x="20.15" y="8.14" width="1.49" height=".14" transform="translate(39.3 -4.65) rotate(123.59)"/>
        <rect class="cls-3" x="20.41" y="8.41" width="1.49" height=".13" transform="translate(43.73 5.34) rotate(150.28)"/>
      </g>
      <g>
        <rect class="cls-3" x="20.4" y="8.63" width="1.49" height=".14" transform="translate(40.57 -3.35) rotate(125.81)"/>
        <rect class="cls-3" x="20.65" y="8.9" width="1.49" height=".13" transform="translate(44.51 7.05) rotate(152.5)"/>
      </g>
      <g>
        <rect class="cls-3" x="20.8" y="9.07" width="1.49" height=".14" transform="translate(41.15 -3.63) rotate(123.91)"/>
        <rect class="cls-3" x="21.05" y="9.34" width="1.49" height=".13" transform="translate(45.41 6.9) rotate(150.59)"/>
      </g>
      <g>
        <rect class="cls-3" x="21.15" y="9.51" width="1.49" height=".14" transform="translate(42.29 -2.86) rotate(124.99)"/>
        <rect class="cls-3" x="21.4" y="9.78" width="1.49" height=".13" transform="translate(46.31 8.01) rotate(151.67)"/>
      </g>
      <g>
        <rect class="cls-3" x="21.58" y="9.9" width="1.49" height=".14" transform="translate(42.95 -3.14) rotate(123.49)"/>
        <rect class="cls-3" x="21.84" y="10.17" width="1.49" height=".13" transform="translate(47.26 7.88) rotate(150.18)"/>
      </g>
      <g>
        <rect class="cls-3" x="22.03" y="10.28" width="1.49" height=".14" transform="translate(44.11 -2.71) rotate(124.09)"/>
        <rect class="cls-3" x="22.29" y="10.54" width="1.49" height=".13" transform="translate(48.31 8.62) rotate(150.77)"/>
      </g>
      <g>
        <rect class="cls-3" x="22.47" y="10.58" width="1.49" height=".14" transform="translate(45.81 -1.26) rotate(127.57)"/>
        <rect class="cls-3" x="22.71" y="10.86" width="1.49" height=".13" transform="translate(49.33 10.57) rotate(154.26)"/>
      </g>
      <g>
        <rect class="cls-3" x="22.86" y="11.04" width="1.49" height=".14" transform="translate(46.43 -1.54) rotate(125.82)"/>
        <rect class="cls-3" x="23.11" y="11.31" width="1.49" height=".13" transform="translate(50.27 10.45) rotate(152.5)"/>
      </g>
      <g>
        <rect class="cls-3" x="23.35" y="11.54" width="1.49" height=".14" transform="translate(47.49 -1.36) rotate(125.28)"/>
        <rect class="cls-3" x="23.6" y="11.81" width="1.49" height=".13" transform="translate(51.42 10.91) rotate(151.96)"/>
      </g>
      <g>
        <rect class="cls-3" x="23.9" y="12.01" width="1.49" height=".14" transform="translate(49.02 -.53) rotate(126.55)"/>
        <rect class="cls-3" x="24.15" y="12.28" width="1.49" height=".13" transform="translate(52.68 12.17) rotate(153.24)"/>
      </g>
      <g>
        <rect class="cls-3" x="24.47" y="12.47" width="1.49" height=".14" transform="translate(50.45 .06) rotate(127.26)"/>
        <rect class="cls-3" x="24.71" y="12.75" width="1.49" height=".13" transform="translate(53.95 13.15) rotate(153.95)"/>
      </g>
      <g>
        <rect class="cls-3" x="24.98" y="13.01" width="1.49" height=".14" transform="translate(51.58 .28) rotate(126.72)"/>
        <rect class="cls-3" x="25.22" y="13.28" width="1.49" height=".13" transform="translate(55.16 13.67) rotate(153.41)"/>
      </g>
      <g>
        <rect class="cls-3" x="25.52" y="13.44" width="1.49" height=".14" transform="translate(52.76 .47) rotate(126.57)"/>
        <rect class="cls-3" x="25.77" y="13.72" width="1.49" height=".13" transform="translate(56.39 14.16) rotate(153.25)"/>
      </g>
      <g>
        <rect class="cls-3" x="26.03" y="13.97" width="1.49" height=".14" transform="translate(52.49 -1.85) rotate(120.63)"/>
        <rect class="cls-3" x="26.3" y="14.22" width="1.49" height=".13" transform="translate(57.52 11.7) rotate(147.32)"/>
      </g>
      <g>
        <rect class="cls-3" x="26.67" y="14.45" width="1.49" height=".14" transform="translate(58.34 16.87) rotate(156.42)"/>
        <rect class="cls-3" x="26.74" y="14.82" width="1.49" height=".13" transform="translate(54.13 31.24) rotate(-176.89)"/>
      </g>
      <g>
        <rect class="cls-3" x="4.32" y="14.38" width="1.49" height=".14" transform="translate(5.66 -.85) rotate(21.53)"/>
        <rect class="cls-3" x="4.52" y="14.08" width="1.49" height=".13" transform="translate(12.31 .8) rotate(48.22)"/>
      </g>
      <g>
        <rect class="cls-3" x="4.74" y="14.08" width="1.49" height=".14" transform="translate(7.28 -.92) rotate(27.97)"/>
        <rect class="cls-3" x="4.97" y="13.8" width="1.49" height=".13" transform="translate(13.72 1.18) rotate(54.66)"/>
      </g>
      <g>
        <rect class="cls-3" x="5.13" y="13.71" width="1.49" height=".14" transform="translate(10.08 -.6) rotate(39.41)"/>
        <rect class="cls-3" x="5.42" y="13.48" width="1.49" height=".13" transform="translate(16.05 2.42) rotate(66.09)"/>
      </g>
      <g>
        <rect class="cls-3" x="5.52" y="13.37" width="1.49" height=".14" transform="translate(9.91 -.93) rotate(39.22)"/>
        <rect class="cls-3" x="5.81" y="13.14" width="1.49" height=".13" transform="translate(15.94 1.84) rotate(65.9)"/>
      </g>
      <g>
        <rect class="cls-3" x="5.87" y="13.01" width="1.49" height=".14" transform="translate(9.24 -1.34) rotate(37.13)"/>
        <rect class="cls-3" x="6.15" y="12.77" width="1.49" height=".13" transform="translate(15.37 .99) rotate(63.82)"/>
      </g>
      <g>
        <rect class="cls-3" x="6.29" y="12.66" width="1.49" height=".14" transform="translate(7.69 -1.8) rotate(31.52)"/>
        <rect class="cls-3" x="6.54" y="12.39" width="1.49" height=".13" transform="translate(14.04 -.3) rotate(58.2)"/>
      </g>
      <g>
        <rect class="cls-3" x="6.65" y="12.28" width="1.49" height=".14" transform="translate(8.47 -2) rotate(35.19)"/>
        <rect class="cls-3" x="6.92" y="12.03" width="1.49" height=".13" transform="translate(14.72 -.36) rotate(61.88)"/>
      </g>
      <g>
        <rect class="cls-3" x="6.96" y="11.92" width="1.49" height=".14" transform="translate(8.08 -2.26) rotate(34.22)"/>
        <rect class="cls-3" x="7.23" y="11.66" width="1.49" height=".13" transform="translate(14.35 -.94) rotate(60.91)"/>
      </g>
      <g>
        <rect class="cls-3" x="7.39" y="11.56" width="1.49" height=".14" transform="translate(8.47 -2.56) rotate(36.33)"/>
        <rect class="cls-3" x="7.66" y="11.32" width="1.49" height=".13" transform="translate(14.74 -1.27) rotate(63.02)"/>
      </g>
      <g>
        <rect class="cls-3" x="7.64" y="11.08" width="1.49" height=".14" transform="translate(8.23 -2.8) rotate(36.28)"/>
        <rect class="cls-3" x="7.91" y="10.84" width="1.49" height=".13" transform="translate(14.44 -1.76) rotate(62.97)"/>
      </g>
      <g>
        <rect class="cls-3" x="8.01" y="10.78" width="1.49" height=".14" transform="translate(8.26 -3.08) rotate(36.88)"/>
        <rect class="cls-3" x="8.28" y="10.54" width="1.49" height=".13" transform="translate(14.51 -2.2) rotate(63.56)"/>
      </g>
      <g>
        <rect class="cls-3" x="8.4" y="10.49" width="1.49" height=".14" transform="translate(7.81 -3.35) rotate(35.4)"/>
        <rect class="cls-3" x="8.67" y="10.24" width="1.49" height=".13" transform="translate(14.11 -2.84) rotate(62.08)"/>
      </g>
      <g>
        <rect class="cls-3" x="8.71" y="10.02" width="1.49" height=".14" transform="translate(7.16 -3.55) rotate(33.59)"/>
        <rect class="cls-3" x="8.97" y="9.77" width="1.49" height=".13" transform="translate(13.44 -3.48) rotate(60.28)"/>
      </g>
      <g>
        <rect class="cls-3" x="9.2" y="9.77" width="1.49" height=".14" transform="translate(7.64 -3.96) rotate(35.81)"/>
        <rect class="cls-3" x="9.47" y="9.53" width="1.49" height=".13" transform="translate(14.01 -3.9) rotate(62.5)"/>
      </g>
      <g>
        <rect class="cls-3" x="9.64" y="9.38" width="1.49" height=".14" transform="translate(7.04 -4.19) rotate(33.91)"/>
        <rect class="cls-3" x="9.9" y="9.12" width="1.49" height=".13" transform="translate(13.43 -4.6) rotate(60.59)"/>
      </g>
      <g>
        <rect class="cls-3" x="10.08" y="9.03" width="1.49" height=".14" transform="translate(7.17 -4.56) rotate(34.99)"/>
        <rect class="cls-3" x="10.35" y="8.78" width="1.49" height=".13" transform="translate(13.61 -5.12) rotate(61.67)"/>
      </g>
      <g>
        <rect class="cls-3" x="10.47" y="8.6" width="1.49" height=".14" transform="translate(6.65 -4.75) rotate(33.49)"/>
        <rect class="cls-3" x="10.73" y="8.34" width="1.49" height=".13" transform="translate(13.06 -5.73) rotate(60.18)"/>
      </g>
      <g>
        <rect class="cls-3" x="10.85" y="8.15" width="1.49" height=".14" transform="translate(6.6 -5.08) rotate(34.09)"/>
        <rect class="cls-3" x="11.11" y="7.89" width="1.49" height=".13" transform="translate(13.01 -6.27) rotate(60.77)"/>
      </g>
      <g>
        <rect class="cls-3" x="11.15" y="7.7" width="1.49" height=".14" transform="translate(7.2 -5.64) rotate(37.57)"/>
        <rect class="cls-3" x="11.42" y="7.46" width="1.49" height=".13" transform="translate(13.67 -6.7) rotate(64.26)"/>
      </g>
      <g>
        <rect class="cls-3" x="11.61" y="7.31" width="1.49" height=".14" transform="translate(6.65 -5.83) rotate(35.82)"/>
        <rect class="cls-3" x="11.87" y="7.06" width="1.49" height=".13" transform="translate(13.12 -7.36) rotate(62.5)"/>
      </g>
      <g>
        <rect class="cls-3" x="12.11" y="6.82" width="1.49" height=".14" transform="translate(6.34 -6.16) rotate(35.28)"/>
        <rect class="cls-3" x="12.38" y="6.57" width="1.49" height=".13" transform="translate(12.81 -8.06) rotate(61.96)"/>
      </g>
      <g>
        <rect class="cls-3" x="12.58" y="6.27" width="1.49" height=".14" transform="translate(6.4 -6.68) rotate(36.55)"/>
        <rect class="cls-3" x="12.85" y="6.03" width="1.49" height=".13" transform="translate(12.91 -8.79) rotate(63.24)"/>
      </g>
      <g>
        <rect class="cls-3" x="13.04" y="5.71" width="1.49" height=".14" transform="translate(6.31 -7.16) rotate(37.26)"/>
        <rect class="cls-3" x="13.31" y="5.47" width="1.49" height=".13" transform="translate(12.85 -9.53) rotate(63.95)"/>
      </g>
      <g>
        <rect class="cls-3" x="13.58" y="5.2" width="1.49" height=".14" transform="translate(5.99 -7.52) rotate(36.72)"/>
        <rect class="cls-3" x="13.85" y="4.96" width="1.49" height=".13" transform="translate(12.55 -10.28) rotate(63.41)"/>
      </g>
      <g>
        <rect class="cls-3" x="13.98" y="4.65" width="1.49" height=".14" transform="translate(7.74 -9.07) rotate(45.38)"/>
        <rect class="cls-3" x="14.29" y="4.45" width="1.49" height=".13" transform="translate(14.7 -11.17) rotate(72.07)"/>
      </g>
      <g>
        <rect class="cls-3" x="14.43" y="4.12" width="1.49" height=".14" transform="translate(10.27 -10.77) rotate(56.41)"/>
        <rect class="cls-3" x="14.77" y="3.98" width="1.49" height=".13" transform="translate(17.67 -11.84) rotate(83.1)"/>
      </g>
      <g>
        <rect class="cls-3" x="6.53" y="17.74" width="1.49" height=".14" transform="translate(-9.22 7.9) rotate(-36.77)"/>
        <rect class="cls-3" x="6.81" y="17.99" width="1.49" height=".13" transform="translate(-11.98 16.74) rotate(-63.45)"/>
      </g>
      <g>
        <rect class="cls-3" x="6.98" y="18.08" width="1.49" height=".14" transform="translate(-9.68 8.87) rotate(-38.88)"/>
        <rect class="cls-3" x="7.26" y="18.32" width="1.49" height=".13" transform="translate(-12.05 18.07) rotate(-65.57)"/>
      </g>
      <g>
        <rect class="cls-3" x="7.25" y="18.54" width="1.49" height=".14" transform="translate(-9.91 9.12) rotate(-38.83)"/>
        <rect class="cls-3" x="7.53" y="18.78" width="1.49" height=".13" transform="translate(-12.31 18.57) rotate(-65.52)"/>
      </g>
      <g>
        <rect class="cls-3" x="7.63" y="18.83" width="1.49" height=".14" transform="translate(-10.1 9.62) rotate(-39.42)"/>
        <rect class="cls-3" x="7.91" y="19.07" width="1.49" height=".13" transform="translate(-12.34 19.3) rotate(-66.11)"/>
      </g>
      <g>
        <rect class="cls-3" x="8.04" y="19.11" width="1.49" height=".14" transform="translate(-9.94 9.45) rotate(-37.94)"/>
        <rect class="cls-3" x="8.31" y="19.35" width="1.49" height=".13" transform="translate(-12.37 19.28) rotate(-64.63)"/>
      </g>
      <g>
        <rect class="cls-3" x="8.37" y="19.56" width="1.49" height=".14" transform="translate(-9.82 9.15) rotate(-36.14)"/>
        <rect class="cls-3" x="8.64" y="19.81" width="1.49" height=".13" transform="translate(-12.59 19.15) rotate(-62.82)"/>
      </g>
      <g>
        <rect class="cls-3" x="8.86" y="19.78" width="1.49" height=".14" transform="translate(-10.25 10.25) rotate(-38.36)"/>
        <rect class="cls-3" x="9.14" y="20.03" width="1.49" height=".13" transform="translate(-12.5 20.58) rotate(-65.05)"/>
      </g>
      <g>
        <rect class="cls-3" x="9.32" y="20.16" width="1.49" height=".14" transform="translate(-10.05 9.94) rotate(-36.46)"/>
        <rect class="cls-3" x="9.6" y="20.41" width="1.49" height=".13" transform="translate(-12.6 20.45) rotate(-63.14)"/>
      </g>
      <g>
        <rect class="cls-3" x="9.78" y="20.49" width="1.49" height=".14" transform="translate(-10.35 10.67) rotate(-37.54)"/>
        <rect class="cls-3" x="10.05" y="20.74" width="1.49" height=".13" transform="translate(-12.63 21.48) rotate(-64.22)"/>
      </g>
      <g>
        <rect class="cls-3" x="10.19" y="20.9" width="1.49" height=".14" transform="translate(-10.25 10.45) rotate(-36.04)"/>
        <rect class="cls-3" x="10.46" y="21.16" width="1.49" height=".13" transform="translate(-12.8 21.45) rotate(-62.73)"/>
      </g>
      <g>
        <rect class="cls-3" x="10.58" y="21.34" width="1.49" height=".14" transform="translate(-10.54 10.99) rotate(-36.64)"/>
        <rect class="cls-3" x="10.85" y="21.59" width="1.49" height=".13" transform="translate(-12.96 22.3) rotate(-63.32)"/>
      </g>
      <g>
        <rect class="cls-3" x="10.9" y="21.77" width="1.49" height=".14" transform="translate(-11.33 12.64) rotate(-40.12)"/>
        <rect class="cls-3" x="11.19" y="22" width="1.49" height=".13" transform="translate(-13.05 24.34) rotate(-66.81)"/>
      </g>
      <g>
        <rect class="cls-3" x="11.38" y="22.14" width="1.49" height=".14" transform="translate(-11.17 12.32) rotate(-38.36)"/>
        <rect class="cls-3" x="11.66" y="22.38" width="1.49" height=".13" transform="translate(-13.18 24.22) rotate(-65.05)"/>
      </g>
      <g>
        <rect class="cls-3" x="11.9" y="22.6" width="1.49" height=".14" transform="translate(-11.25 12.52) rotate(-37.83)"/>
        <rect class="cls-3" x="12.18" y="22.85" width="1.49" height=".13" transform="translate(-13.32 24.72) rotate(-64.51)"/>
      </g>
      <g>
        <rect class="cls-3" x="12.39" y="23.13" width="1.49" height=".14" transform="translate(-11.69 13.48) rotate(-39.1)"/>
        <rect class="cls-3" x="12.67" y="23.37" width="1.49" height=".13" transform="translate(-13.46 26.06) rotate(-65.78)"/>
      </g>
      <g>
        <rect class="cls-3" x="12.88" y="23.68" width="1.49" height=".14" transform="translate(-12.05 14.23) rotate(-39.81)"/>
        <rect class="cls-3" x="13.16" y="23.91" width="1.49" height=".13" transform="translate(-13.63 27.17) rotate(-66.49)"/>
      </g>
      <g>
        <rect class="cls-3" x="13.44" y="24.16" width="1.49" height=".14" transform="translate(-12.14 14.45) rotate(-39.27)"/>
        <rect class="cls-3" x="13.72" y="24.4" width="1.49" height=".13" transform="translate(-13.77 27.71) rotate(-65.96)"/>
      </g>
      <g>
        <rect class="cls-3" x="13.9" y="24.69" width="1.49" height=".14" transform="translate(-12.34 14.79) rotate(-39.11)"/>
        <rect class="cls-3" x="14.18" y="24.92" width="1.49" height=".13" transform="translate(-13.99 28.36) rotate(-65.8)"/>
      </g>
      <g>
        <rect class="cls-3" x="14.44" y="25.17" width="1.49" height=".14" transform="translate(-11.34 12.43) rotate(-33.18)"/>
        <rect class="cls-3" x="14.7" y="25.44" width="1.49" height=".13" transform="translate(-14.37 26.06) rotate(-59.87)"/>
      </g>
      <g>
        <rect class="cls-3" x="14.8" y="25.66" width="1.49" height=".14" transform="translate(-13.42 17.68) rotate(-43.33)"/>
        <rect class="cls-3" x="15.1" y="25.87" width="1.49" height=".13" transform="translate(-13.95 31.97) rotate(-70.02)"/>
      </g>
      <g>
        <rect class="cls-3" x="15.27" y="26.2" width="1.49" height=".14" transform="translate(-14.02 32.96) rotate(-71.2)"/>
        <rect class="cls-3" x="15.63" y="26.25" width="1.49" height=".13" transform="translate(-7.44 46.15) rotate(-97.89)"/>
      </g>
      <rect class="cls-1" x="-2.37" y="19.76" width="21.52" height="2" transform="translate(17.14 .15) rotate(45)"/>
      <rect class="cls-1" x="12.06" y="20.15" width="22.61" height="2" transform="translate(54.85 19.58) rotate(135)"/>
      <rect class="cls-1" x="-2.44" y="8.09" width="21.52" height="2" transform="translate(-3.99 8.54) rotate(-45)"/>
      <rect class="cls-1" x="11.99" y="7.7" width="22.61" height="2" transform="translate(33.62 31.33) rotate(-135)"/>
      <ellipse class="cls-8" cx="16.09" cy="15.07" rx=".44" ry=".4"/>
    </g>
  </g>
</svg>