<?xml version="1.0" encoding="UTF-8"?>
<svg id="Layer_2" data-name="Layer 2" xmlns="http://www.w3.org/2000/svg" viewBox="0 0 143.35 170.7">
  <defs>
    <style>
      .cls-1 {
        fill: #781d4f;
      }

      .cls-1, .cls-2, .cls-3, .cls-4, .cls-5, .cls-6, .cls-7, .cls-8, .cls-9, .cls-10, .cls-11 {
        stroke-width: 0px;
      }

      .cls-2 {
        fill: #6a0005;
      }

      .cls-3 {
        fill: #f7931e;
      }

      .cls-4 {
        fill: #310005;
      }

      .cls-5 {
        fill: #4f1d4c;
      }

      .cls-6 {
        fill: red;
      }

      .cls-7 {
        fill: #a60005;
      }

      .cls-8 {
        fill: #fff;
      }

      .cls-9 {
        fill: #e64539;
      }

      .cls-10 {
        fill: #ad2f45;
      }

      .cls-11 {
        fill: #1e0005;
      }
    </style>
  </defs>
  <g id="Layer_1-2" data-name="Layer 1">
    <g>
      <rect class="cls-8" x="98.92" y="14.79" width="2.46" height="2.59"/>
      <rect class="cls-8" x="89" y="17.38" width="9.94" height="2.44"/>
      <rect class="cls-8" x="90.16" y="20.99" width="5.16" height="2.44" transform="translate(114.96 -70.54) rotate(90)"/>
      <rect class="cls-8" x="86.54" y="27.24" width="7.43" height="2.53" transform="translate(118.77 -61.75) rotate(90)"/>
      <rect class="cls-8" x="79.06" y="19.82" width="9.94" height="2.44"/>
      <rect class="cls-8" x="59.36" y="29.78" width="29.88" height="2.44"/>
      <rect class="cls-8" x="74.3" y="27.29" width="9.88" height="2.48"/>
      <rect class="cls-8" x="76.78" y="22.33" width="2.46" height="2.46"/>
      <rect class="cls-8" x="74.3" y="24.79" width="2.46" height="2.69"/>
      <rect class="cls-8" x="59.36" y="27.28" width="2.46" height="2.61"/>
      <rect class="cls-8" x="61.82" y="22.33" width="2.46" height="4.95"/>
      <rect class="cls-8" x="64.28" y="17.38" width="2.46" height="4.83"/>
      <rect class="cls-8" x="66.74" y="9.98" width="2.46" height="9.84"/>
      <rect class="cls-8" x="66.74" y="17.37" width="7.56" height="2.46"/>
      <rect class="cls-8" x="69.2" y="4.92" width="2.46" height="5.06"/>
      <rect class="cls-8" x="71.66" y="2.46" width="5.13" height="2.46"/>
      <rect class="cls-8" x="76.6" width="12.4" height="2.46"/>
      <rect class="cls-8" x="89" y="2.46" width="2.46" height="2.46"/>
      <rect class="cls-8" x="91.52" y="4.92" width="2.46" height="7.52"/>
      <rect class="cls-8" x="93.97" y="12.33" width="4.97" height="2.46"/>
      <rect class="cls-8" x="86.48" y="9.98" width="5.31" height="2.46"/>
      <rect class="cls-8" x="81.38" y="12.34" width="5.45" height="2.46"/>
      <rect class="cls-8" x="74.22" y="14.79" width="7.48" height="2.59"/>
      <rect class="cls-1" x="89.03" y="19.82" width="2.46" height="2.46"/>
      <rect class="cls-1" x="79.24" y="22.33" width="7.34" height="2.46"/>
      <rect class="cls-1" x="76.78" y="24.81" width="2.46" height="2.46"/>
      <rect class="cls-10" x="79.24" y="24.81" width="7.34" height="2.46"/>
      <rect class="cls-10" x="84.18" y="27.3" width="2.3" height="2.46"/>
      <rect class="cls-10" x="86.58" y="22.33" width="2.46" height="2.46"/>
      <rect class="cls-5" x="93.98" y="14.85" width="4.94" height="2.46"/>
      <rect class="cls-5" x="91.47" y="12.44" width="2.46" height="2.46"/>
      <rect class="cls-11" x="81.7" y="14.79" width="12.22" height="2.59"/>
      <rect class="cls-11" x="81.63" y="17.16" width="7.24" height="2.59"/>
      <rect class="cls-11" x="86.83" y="12.44" width="4.69" height="2.59"/>
      <rect class="cls-9" x="88.97" y="22.3" width="2.46" height="2.46"/>
      <rect class="cls-9" x="86.58" y="24.81" width="2.36" height="4.95"/>
      <rect class="cls-7" x="76.78" y="2.46" width="12.19" height="2.46"/>
      <rect class="cls-7" x="89.07" y="4.92" width="2.46" height="2.53"/>
      <rect class="cls-7" x="71.66" y="4.92" width="2.46" height="5.06"/>
      <rect class="cls-7" x="69.2" y="9.98" width="2.46" height="7.4"/>
      <rect class="cls-2" x="84.03" y="4.92" width="5.01" height="2.53"/>
      <rect class="cls-2" x="86.51" y="7.41" width="2.53" height="2.53"/>
      <rect class="cls-2" x="76.6" y="4.92" width="7.5" height="2.53"/>
      <rect class="cls-4" x="72.98" y="11.12" width="4.8" height="2.53" transform="translate(87.77 -63) rotate(90)"/>
      <rect class="cls-7" x="88.95" y="7.41" width="2.53" height="2.53"/>
      <rect class="cls-7" x="74.12" y="4.92" width="2.53" height="2.53"/>
      <rect class="cls-2" x="71.62" y="9.95" width="2.53" height="7.43"/>
      <rect class="cls-4" x="76.6" y="7.41" width="9.88" height="2.53"/>
      <rect class="cls-4" x="76.6" y="9.77" width="9.88" height="2.53"/>
      <rect class="cls-4" x="76.6" y="12.29" width="4.78" height="2.53"/>
      <rect class="cls-7" x="66.74" y="19.78" width="2.53" height="2.53"/>
      <rect class="cls-7" x="64.28" y="22.27" width="2.46" height="5.03"/>
      <rect class="cls-7" x="61.82" y="27.26" width="2.46" height="2.53"/>
      <rect class="cls-2" x="69.26" y="19.78" width="2.53" height="2.53"/>
      <rect class="cls-2" x="66.7" y="22.27" width="2.53" height="5.03"/>
      <rect class="cls-2" x="64.24" y="27.26" width="2.53" height="2.53"/>
      <rect class="cls-2" x="74.09" y="7.41" width="2.53" height="2.53"/>
      <rect class="cls-4" x="71.79" y="19.78" width="2.53" height="2.53" transform="translate(94.1 -52.01) rotate(90)"/>
      <rect class="cls-4" x="68.02" y="23.53" width="5" height="2.53" transform="translate(95.32 -45.73) rotate(90)"/>
      <rect class="cls-4" x="66.74" y="27.26" width="2.53" height="2.53" transform="translate(96.53 -39.48) rotate(90)"/>
      <rect class="cls-4" x="74.37" y="17.33" width="2.44" height="2.53" transform="translate(94.18 -56.99) rotate(90)"/>
      <rect class="cls-11" x="69.34" y="24.78" width="7.43" height="2.53" transform="translate(99.1 -47.01) rotate(90)"/>
      <rect class="cls-11" x="73.06" y="21.01" width="5.06" height="2.53" transform="translate(97.87 -53.31) rotate(90)"/>
      <rect class="cls-11" x="69.26" y="27.28" width="2.53" height="2.53" transform="translate(99.07 -41.97) rotate(90)"/>
      <rect class="cls-11" x="75.57" y="18.66" width="4.95" height="2.39" transform="translate(97.9 -58.19) rotate(90)"/>
      <rect class="cls-11" x="79.24" y="17.38" width="2.39" height="2.39" transform="translate(99.01 -61.86) rotate(90)"/>
      <rect class="cls-8" x="56.91" y="32.25" width="2.46" height="29.57"/>
      <rect class="cls-8" x="91.52" y="32.25" width="2.46" height="29.57"/>
      <rect class="cls-6" x="74.35" y="24.64" width="2.46" height="32.43" transform="translate(116.44 -34.72) rotate(90)"/>
      <rect class="cls-6" x="74.36" y="34.52" width="2.46" height="32.43" transform="translate(126.32 -24.85) rotate(90)"/>
      <rect class="cls-11" x="86.58" y="34.69" width="4.89" height="4.89" transform="translate(126.16 -51.88) rotate(90)"/>
      <rect class="cls-11" x="84.09" y="37.08" width="2.48" height="2.53" transform="translate(123.67 -46.99) rotate(90)"/>
      <rect class="cls-7" x="84.06" y="34.69" width="2.53" height="2.41"/>
      <rect class="cls-7" x="76.6" y="37.16" width="7.58" height="2.41"/>
      <rect class="cls-2" x="77.92" y="30.92" width="2.45" height="9.99" transform="translate(115.06 -43.23) rotate(90)"/>
      <rect class="cls-2" x="71.73" y="34.72" width="2.45" height="7.29" transform="translate(111.32 -34.59) rotate(90)"/>
      <rect class="cls-4" x="59.37" y="34.69" width="14.92" height="2.49" transform="translate(133.66 71.87) rotate(180)"/>
      <rect class="cls-4" x="59.37" y="37.18" width="9.89" height="2.49" transform="translate(128.62 76.85) rotate(180)"/>
      <rect class="cls-11" x="85.3" y="43.35" width="7.42" height="4.89" transform="translate(134.8 -43.21) rotate(90)"/>
      <rect class="cls-11" x="82.81" y="45.73" width="5.01" height="2.53" transform="translate(132.31 -38.31) rotate(90)"/>
      <rect class="cls-7" x="84.04" y="42.09" width="2.53" height="2.41"/>
      <rect class="cls-7" x="76.58" y="44.56" width="7.58" height="2.41"/>
      <rect class="cls-2" x="77.9" y="38.32" width="2.45" height="9.99" transform="translate(122.44 -35.82) rotate(90)"/>
      <rect class="cls-2" x="71.71" y="42.12" width="2.45" height="7.29" transform="translate(118.69 -27.17) rotate(90)"/>
      <rect class="cls-4" x="59.35" y="42.09" width="14.92" height="2.49" transform="translate(133.62 86.66) rotate(180)"/>
      <rect class="cls-4" x="59.35" y="44.58" width="9.89" height="2.49" transform="translate(128.58 91.64) rotate(180)"/>
      <rect class="cls-11" x="85.33" y="53.19" width="7.35" height="4.89" transform="translate(144.64 -33.37) rotate(90)"/>
      <rect class="cls-11" x="82.79" y="55.62" width="5.04" height="2.53" transform="translate(142.2 -28.42) rotate(90)"/>
      <rect class="cls-7" x="84.04" y="51.96" width="2.53" height="2.41"/>
      <rect class="cls-7" x="76.58" y="54.43" width="7.58" height="2.41"/>
      <rect class="cls-2" x="77.9" y="48.19" width="2.45" height="9.99" transform="translate(132.31 -25.94) rotate(90)"/>
      <rect class="cls-2" x="71.71" y="51.99" width="2.45" height="7.29" transform="translate(128.57 -17.3) rotate(90)"/>
      <rect class="cls-4" x="59.35" y="51.96" width="14.92" height="2.49" transform="translate(133.62 106.41) rotate(180)"/>
      <rect class="cls-4" x="59.35" y="54.45" width="9.89" height="2.49" transform="translate(128.58 111.39) rotate(180)"/>
      <rect class="cls-11" x="81.64" y="47" width="2.53" height="2.53" transform="translate(131.17 -34.64) rotate(90)"/>
      <rect class="cls-7" x="74.27" y="46.96" width="7.46" height="2.51"/>
      <rect class="cls-2" x="68.09" y="43.26" width="2.45" height="9.92" transform="translate(117.53 -21.09) rotate(90)"/>
      <rect class="cls-4" x="59.34" y="47.02" width="4.94" height="2.51" transform="translate(123.62 96.55) rotate(180)"/>
      <rect class="cls-11" x="81.64" y="56.87" width="2.53" height="2.53" transform="translate(141.05 -24.77) rotate(90)"/>
      <rect class="cls-7" x="74.27" y="56.84" width="7.46" height="2.51"/>
      <rect class="cls-2" x="68.09" y="53.13" width="2.45" height="9.92" transform="translate(127.4 -11.22) rotate(90)"/>
      <rect class="cls-4" x="59.34" y="56.9" width="4.94" height="2.51" transform="translate(123.62 116.3) rotate(180)"/>
      <rect class="cls-6" x="74.15" y="17.26" width="2.46" height="32.43" transform="translate(108.86 -41.9) rotate(90)"/>
      <rect class="cls-6" x="74.36" y="44.44" width="2.46" height="32.43" transform="translate(136.24 -14.93) rotate(90)"/>
      <rect class="cls-8" x="93.98" y="37.16" width="2.46" height="9.8"/>
      <rect class="cls-8" x="96.43" y="47.06" width="2.46" height="12.37"/>
      <rect class="cls-8" x="98.89" y="59.43" width="2.46" height="17.3"/>
      <rect class="cls-8" x="103.81" y="69.26" width="9.92" height="2.46"/>
      <rect class="cls-8" x="113.73" y="66.85" width="2.46" height="2.46"/>
      <rect class="cls-8" x="116.19" y="69.37" width="2.46" height="12.29"/>
      <rect class="cls-8" x="118.65" y="71.83" width="7.41" height="2.46"/>
      <rect class="cls-8" x="126.06" y="69.26" width="9.89" height="2.46"/>
      <rect class="cls-8" x="135.95" y="66.85" width="7.41" height="2.46"/>
      <rect class="cls-8" x="140.89" y="69.26" width="2.46" height="2.46"/>
      <rect class="cls-8" x="135.95" y="71.83" width="7.41" height="2.46"/>
      <rect class="cls-8" x="126.06" y="74.28" width="9.89" height="2.46"/>
      <rect class="cls-8" x="118.65" y="76.74" width="7.41" height="2.46"/>
      <rect class="cls-8" x="113.73" y="81.65" width="2.46" height="2.46"/>
      <rect class="cls-8" x="106.31" y="79.19" width="7.42" height="2.46"/>
      <rect class="cls-8" x="111.27" y="71.71" width="2.46" height="7.48"/>
      <rect class="cls-8" x="96.25" y="81.65" width="10.19" height="2.46"/>
      <rect class="cls-8" x="47.03" y="79.24" width="49.4" height="2.46"/>
      <rect class="cls-8" x="24.78" y="76.78" width="22.25" height="2.46"/>
      <rect class="cls-8" x="24.78" y="71.77" width="22.25" height="2.46"/>
      <rect class="cls-8" x="9.9" y="74.32" width="14.88" height="2.46"/>
      <rect class="cls-8" x="2.46" y="71.86" width="7.44" height="2.46"/>
      <rect class="cls-8" y="69.24" width="2.46" height="2.46"/>
      <rect class="cls-8" x="2.46" y="66.85" width="7.44" height="2.46"/>
      <rect class="cls-8" x="9.9" y="69.31" width="14.88" height="2.46"/>
      <rect class="cls-8" x="47.03" y="74.23" width="19.71" height="2.46"/>
      <rect class="cls-8" x="61.81" y="64.36" width="2.46" height="9.98"/>
      <rect class="cls-8" x="59.34" y="61.89" width="32.11" height="2.46"/>
      <rect class="cls-8" x="93.98" y="59.43" width="2.46" height="2.39"/>
      <rect class="cls-8" x="89.06" y="64.35" width="2.46" height="2.46"/>
      <rect class="cls-8" x="86.6" y="66.8" width="2.46" height="2.46"/>
      <rect class="cls-8" x="81.61" y="69.26" width="7.45" height="2.46"/>
      <rect class="cls-8" x="76.68" y="66.8" width="4.88" height="2.46"/>
      <rect class="cls-8" x="74.2" y="64.35" width="2.46" height="2.46"/>
      <rect class="cls-8" x="69.3" y="66.8" width="4.91" height="2.46"/>
      <rect class="cls-8" x="66.84" y="69.35" width="2.46" height="2.46"/>
      <rect class="cls-8" x="64.27" y="71.88" width="2.46" height="2.46"/>
      <rect class="cls-8" x="66.74" y="76.69" width="9.89" height="2.46"/>
      <rect class="cls-8" x="89.06" y="71.83" width="10.04" height="2.46"/>
      <rect class="cls-8" x="96.43" y="76.73" width="2.46" height="2.46"/>
      <rect class="cls-7" x="96.43" y="59.43" width="2.46" height="7.38"/>
      <rect class="cls-7" x="86.6" y="71.79" width="2.46" height="2.46"/>
      <rect class="cls-7" x="76.72" y="69.35" width="2.46" height="2.46"/>
      <rect class="cls-7" x="74.2" y="66.8" width="2.46" height="2.46"/>
      <rect class="cls-2" x="93.98" y="47.05" width="2.46" height="12.36"/>
      <rect class="cls-2" x="91.52" y="61.85" width="4.99" height="4.99"/>
      <rect class="cls-2" x="96.51" y="66.8" width="2.32" height="4.99"/>
      <rect class="cls-2" x="86.67" y="74.19" width="12.16" height="2.51"/>
      <rect class="cls-2" x="76.61" y="71.9" width="10.06" height="2.32"/>
      <rect class="cls-2" x="69.31" y="69.33" width="7.4" height="2.49"/>
      <rect class="cls-2" x="79.18" y="69.45" width="2.44" height="2.44"/>
      <rect class="cls-5" x="103.87" y="71.71" width="7.41" height="7.41"/>
      <rect class="cls-5" x="96.43" y="79.12" width="9.96" height="2.53"/>
      <rect class="cls-5" x="98.83" y="76.69" width="5.1" height="2.53"/>
      <rect class="cls-5" x="101.41" y="74.29" width="2.53" height="2.53"/>
      <rect class="cls-5" x="64.28" y="64.36" width="9.92" height="2.53"/>
      <rect class="cls-5" x="64.28" y="66.77" width="5.03" height="2.53"/>
      <rect class="cls-5" x="64.28" y="69.32" width="2.53" height="2.53"/>
      <rect class="cls-4" x="76.66" y="64.31" width="12.53" height="2.53"/>
      <rect class="cls-4" x="81.56" y="66.77" width="5.04" height="2.53"/>
      <rect class="cls-4" x="89.06" y="66.82" width="7.44" height="5"/>
      <rect class="cls-4" x="66.79" y="71.79" width="9.82" height="4.89"/>
      <rect class="cls-4" x="76.66" y="74.23" width="9.94" height="4.95"/>
      <rect class="cls-4" x="86.54" y="76.69" width="9.89" height="2.53"/>
      <rect class="cls-6" x="137.2" y="67.98" width="2.48" height="4.99" transform="translate(208.92 -67.97) rotate(90)"/>
      <rect class="cls-6" x="129.79" y="68.09" width="2.48" height="9.93" transform="translate(204.08 -57.97) rotate(90)"/>
      <rect class="cls-6" x="121.12" y="71.8" width="2.48" height="7.41" transform="translate(197.86 -46.84) rotate(90)"/>
      <rect class="cls-3" x="108.78" y="74.24" width="12.32" height="2.5" transform="translate(190.43 -39.45) rotate(90)"/>
      <rect class="cls-11" x="55.64" y="68.16" width="2.48" height="19.7" transform="translate(134.89 21.13) rotate(90)"/>
      <rect class="cls-11" x="34.67" y="64.43" width="2.48" height="22.25" transform="translate(111.46 39.65) rotate(90)"/>
      <rect class="cls-11" x="16.1" y="65.56" width="2.48" height="14.88" transform="translate(90.34 55.66) rotate(90)"/>
      <rect class="cls-11" x="4.92" y="66.85" width="2.48" height="7.39" transform="translate(76.69 64.39) rotate(90)"/>
      <rect class="cls-8" x="101.35" y="71.71" width="2.46" height="2.46"/>
      <rect class="cls-8" x="98.89" y="84.12" width="2.46" height="4.95"/>
      <rect class="cls-8" x="101.35" y="89.08" width="2.46" height="7.38"/>
      <rect class="cls-8" x="103.81" y="96.46" width="2.46" height="19.75"/>
      <rect class="cls-8" x="106.27" y="116.21" width="2.46" height="12.48"/>
      <rect class="cls-8" x="103.81" y="128.61" width="2.5" height="2.5"/>
      <rect class="cls-8" x="101.38" y="131.13" width="2.46" height="32.11"/>
      <rect class="cls-8" x="98.92" y="160.77" width="2.46" height="2.46"/>
      <rect class="cls-8" x="105.08" y="162.07" width="2.46" height="4.95" transform="translate(270.85 58.23) rotate(90)"/>
      <rect class="cls-8" x="111.26" y="163.29" width="2.46" height="7.42" transform="translate(279.49 54.51) rotate(90)"/>
      <rect class="cls-8" x="116.21" y="168.22" width="2.46" height="2.47" transform="translate(286.9 52.02) rotate(90)"/>
      <rect class="cls-8" x="95.21" y="162.07" width="2.46" height="4.95" transform="translate(260.98 68.1) rotate(90)"/>
      <rect class="cls-8" x="93.97" y="165.75" width="2.46" height="4.95" transform="translate(190.4 336.46) rotate(180)"/>
      <rect class="cls-8" x="91.51" y="158.36" width="2.46" height="4.95" transform="translate(185.48 321.68) rotate(180)"/>
      <rect class="cls-8" x="96.41" y="158.31" width="2.49" height="2.49" transform="translate(257.21 61.9) rotate(90)"/>
      <rect class="cls-8" x="93.97" y="148.47" width="2.46" height="9.84" transform="translate(190.4 306.77) rotate(180)"/>
      <rect class="cls-8" x="91.51" y="140.98" width="2.46" height="7.49" transform="translate(185.48 289.44) rotate(180)"/>
      <rect class="cls-8" x="89" y="133.61" width="2.46" height="7.37" transform="translate(180.45 274.58) rotate(180)"/>
      <rect class="cls-8" x="86.54" y="131.14" width="2.46" height="2.46" transform="translate(175.54 264.75) rotate(180)"/>
      <rect class="cls-8" x="82.84" y="127.42" width="2.46" height="4.95" transform="translate(-45.83 213.96) rotate(-90)"/>
      <rect class="cls-8" x="76.63" y="128.64" width="2.46" height="7.47" transform="translate(-54.52 210.23) rotate(-90)"/>
      <rect class="cls-8" x="71.66" y="133.61" width="2.46" height="2.46" transform="translate(-61.94 207.73) rotate(-90)"/>
      <rect class="cls-8" x="69.2" y="136.06" width="2.46" height="2.46" transform="translate(-66.86 207.73) rotate(-90)"/>
      <rect class="cls-8" x="65.51" y="139.76" width="4.94" height="2.46" transform="translate(-73.01 208.96) rotate(-90)"/>
      <rect class="cls-8" x="64.29" y="143.49" width="2.46" height="7.33" transform="translate(131.03 294.32) rotate(180)"/>
      <rect class="cls-8" x="61.83" y="150.83" width="2.46" height="9.97" transform="translate(126.12 311.62) rotate(180)"/>
      <rect class="cls-8" x="64.29" y="160.8" width="2.46" height="4.95" transform="translate(131.03 326.54) rotate(180)"/>
      <rect class="cls-8" x="67.99" y="164.5" width="2.46" height="4.95" transform="translate(-97.75 236.2) rotate(-90)"/>
      <rect class="cls-8" x="71.69" y="168.23" width="2.46" height="2.46" transform="translate(-96.53 242.38) rotate(-90)"/>
      <rect class="cls-8" x="58.13" y="166.98" width="2.46" height="4.95" transform="translate(-110.1 228.81) rotate(-90)"/>
      <rect class="cls-8" x="53.18" y="164.5" width="2.46" height="4.95" transform="translate(-112.57 221.38) rotate(-90)"/>
      <rect class="cls-8" x="51.93" y="153.38" width="2.46" height="12.37" transform="translate(106.32 319.12) rotate(180)"/>
      <rect class="cls-8" x="55.65" y="157.09" width="2.46" height="4.95" transform="translate(-102.68 216.44) rotate(-90)"/>
      <rect class="cls-8" x="59.36" y="155.85" width="2.46" height="2.47" transform="translate(-96.49 217.68) rotate(-90)"/>
      <rect class="cls-8" x="54.41" y="145.97" width="2.46" height="7.41"/>
      <rect class="cls-8" x="56.88" y="136.06" width="2.46" height="9.9"/>
      <rect class="cls-8" x="54.41" y="133.59" width="2.46" height="4.95"/>
      <rect class="cls-8" x="56.88" y="131.16" width="2.46" height="2.46"/>
      <rect class="cls-8" x="59.34" y="128.68" width="2.46" height="2.46"/>
      <rect class="cls-8" x="61.8" y="126.23" width="27.2" height="2.46"/>
      <rect class="cls-8" x="59.34" y="133.61" width="2.46" height="2.46"/>
      <rect class="cls-8" x="61.8" y="131.16" width="2.46" height="2.46"/>
      <rect class="cls-8" x="64.26" y="128.68" width="2.46" height="2.46"/>
      <rect class="cls-8" x="56.86" y="123.77" width="4.93" height="2.46"/>
      <rect class="cls-8" x="54.41" y="111.28" width="2.46" height="12.48"/>
      <rect class="cls-8" x="51.95" y="118.79" width="2.46" height="2.46"/>
      <rect class="cls-8" x="49.49" y="111.28" width="2.46" height="7.47"/>
      <rect class="cls-8" x="56.86" y="96.54" width="2.46" height="14.74"/>
      <rect class="cls-8" x="51.95" y="98.99" width="2.46" height="12.44"/>
      <rect class="cls-8" x="54.41" y="89.14" width="2.46" height="9.86"/>
      <rect class="cls-8" x="56.86" y="84.11" width="2.46" height="5.03"/>
      <rect class="cls-8" x="59.32" y="81.7" width="4.94" height="2.46"/>
      <rect class="cls-8" x="61.81" y="84.16" width="2.46" height="2.46"/>
      <rect class="cls-8" x="59.32" y="86.62" width="2.46" height="9.91"/>
      <rect class="cls-8" x="61.81" y="91.52" width="2.46" height="2.46"/>
      <rect class="cls-8" x="64.27" y="94.07" width="32.17" height="2.46"/>
      <rect class="cls-8" x="93.98" y="84.11" width="2.46" height="10.11"/>
      <rect class="cls-8" x="96.43" y="91.54" width="4.92" height="2.46"/>
      <rect class="cls-8" x="93.98" y="96.53" width="2.46" height="4.94"/>
      <rect class="cls-8" x="96.43" y="99" width="7.38" height="2.46"/>
      <rect class="cls-8" x="91.52" y="101.47" width="2.46" height="12.26"/>
      <rect class="cls-8" x="93.98" y="106.37" width="9.83" height="2.46"/>
      <rect class="cls-8" x="64.27" y="103.91" width="27.25" height="2.46"/>
      <rect class="cls-8" x="59.32" y="101.47" width="4.94" height="2.46"/>
      <rect class="cls-8" x="59.32" y="111.28" width="4.93" height="2.51"/>
      <rect class="cls-8" x="64.26" y="113.79" width="27.26" height="2.46"/>
      <rect class="cls-8" x="89.06" y="116.25" width="2.46" height="9.98"/>
      <rect class="cls-8" x="91.51" y="131.14" width="2.46" height="2.46"/>
      <rect class="cls-8" x="93.97" y="128.68" width="2.46" height="2.46"/>
      <rect class="cls-8" x="96.44" y="131.16" width="4.93" height="2.46"/>
      <rect class="cls-8" x="93.97" y="133.61" width="2.46" height="7.37"/>
      <rect class="cls-7" x="86.54" y="81.7" width="2.49" height="2.45"/>
      <rect class="cls-7" x="84.05" y="84.15" width="2.49" height="2.49"/>
      <rect class="cls-7" x="81.59" y="86.6" width="2.49" height="2.49"/>
      <rect class="cls-7" x="76.65" y="89.09" width="4.94" height="2.49"/>
      <rect class="cls-7" x="71.69" y="91.55" width="4.97" height="2.48"/>
      <rect class="cls-7" x="81.6" y="96.53" width="2.49" height="2.45"/>
      <rect class="cls-7" x="76.65" y="99" width="4.94" height="2.45"/>
      <rect class="cls-7" x="71.69" y="101.45" width="4.97" height="2.45"/>
      <rect class="cls-7" x="56.86" y="89.14" width="2.45" height="2.45"/>
      <rect class="cls-7" x="54.41" y="99" width="2.45" height="4.91"/>
      <rect class="cls-7" x="96.42" y="84.11" width="2.47" height="2.49"/>
      <rect class="cls-7" x="98.88" y="89.07" width="2.49" height="2.45"/>
      <rect class="cls-7" x="98.86" y="94.01" width="2.49" height="2.49"/>
      <rect class="cls-7" x="101.32" y="96.46" width="2.49" height="2.54"/>
      <rect class="cls-7" x="79.11" y="106.39" width="2.49" height="2.49"/>
      <rect class="cls-7" x="74.18" y="108.88" width="4.94" height="2.45"/>
      <rect class="cls-7" x="69.23" y="111.29" width="4.95" height="2.45"/>
      <rect class="cls-2" x="81.64" y="79.19" width="2.45" height="7.47" transform="translate(165.79 .07) rotate(90)"/>
      <rect class="cls-2" x="79.13" y="81.69" width="2.45" height="7.4" transform="translate(165.75 5.04) rotate(90)"/>
      <rect class="cls-2" x="75.43" y="82.87" width="2.45" height="9.94" transform="translate(164.5 11.19) rotate(90)"/>
      <rect class="cls-2" x="70.44" y="85.32" width="2.45" height="9.97" transform="translate(161.97 18.63) rotate(90)"/>
      <rect class="cls-2" x="66.72" y="89.07" width="2.5" height="7.4" transform="translate(160.74 24.81) rotate(90)"/>
      <rect class="cls-2" x="59.32" y="84.13" width="2.45" height="2.45" transform="translate(145.9 24.81) rotate(90)"/>
      <rect class="cls-2" x="56.87" y="91.58" width="2.45" height="4.98" transform="translate(116.18 188.14) rotate(180)"/>
      <rect class="cls-2" x="76.68" y="94.03" width="2.45" height="7.45" transform="translate(175.66 19.85) rotate(90)"/>
      <rect class="cls-2" x="71.68" y="96.48" width="2.47" height="7.47" transform="translate(173.12 27.3) rotate(90)"/>
      <rect class="cls-2" x="66.75" y="98.96" width="2.46" height="7.42" transform="translate(170.65 34.69) rotate(90)"/>
      <rect class="cls-2" x="72.9" y="102.65" width="2.49" height="9.93" transform="translate(181.76 33.47) rotate(90)"/>
      <rect class="cls-2" x="66.76" y="103.87" width="2.45" height="12.39" transform="translate(178.04 42.08) rotate(90)"/>
      <rect class="cls-2" x="65.55" y="110" width="2.45" height="5.03" transform="translate(179.29 45.74) rotate(90)"/>
      <rect class="cls-2" x="71.72" y="131.17" width="2.45" height="2.37" transform="translate(205.29 59.41) rotate(90)"/>
      <rect class="cls-2" x="69.21" y="133.65" width="2.45" height="2.37" transform="translate(205.27 64.4) rotate(90)"/>
      <rect class="cls-2" x="66.75" y="136.08" width="2.45" height="2.37" transform="translate(205.24 69.29) rotate(90)"/>
      <rect class="cls-2" x="63.03" y="139.79" width="4.97" height="2.37" transform="translate(206.49 75.45) rotate(90)"/>
      <rect class="cls-2" x="59.37" y="145.96" width="7.37" height="2.37" transform="translate(210.2 84.08) rotate(90)"/>
      <rect class="cls-2" x="58.09" y="152.12" width="4.94" height="2.53" transform="translate(213.95 92.82) rotate(90)"/>
      <rect class="cls-2" x="59.41" y="158.34" width="2.45" height="2.45" transform="translate(220.19 98.93) rotate(90)"/>
      <rect class="cls-2" x="56.87" y="158.32" width="4.96" height="9.88" transform="translate(222.61 103.92) rotate(90)"/>
      <rect class="cls-2" x="60.59" y="162.04" width="2.45" height="9.87" transform="translate(228.79 105.16) rotate(90)"/>
      <rect class="cls-2" x="65.52" y="164.51" width="2.48" height="9.87" transform="translate(236.2 102.68) rotate(90)"/>
      <rect class="cls-2" x="86.57" y="145.96" width="27.15" height="2.47" transform="translate(247.34 47.05) rotate(90)"/>
      <rect class="cls-2" x="100.11" y="162.04" width="2.52" height="4.92" transform="translate(265.88 63.13) rotate(90)"/>
      <rect class="cls-2" x="101.38" y="160.82" width="2.47" height="12.34" transform="translate(269.6 64.38) rotate(90)"/>
      <rect class="cls-2" x="105.08" y="159.57" width="2.48" height="19.78" transform="translate(275.78 63.15) rotate(90)"/>
      <rect class="cls-5" x="93.98" y="108.83" width="9.83" height="2.52"/>
      <rect class="cls-5" x="96.42" y="111.3" width="7.39" height="2.46"/>
      <rect class="cls-5" x="96.42" y="113.73" width="7.39" height="2.46"/>
      <rect class="cls-5" x="96.42" y="116.19" width="9.84" height="2.58"/>
      <rect class="cls-5" x="98.92" y="118.77" width="7.34" height="7.45"/>
      <rect class="cls-5" x="101.33" y="126.23" width="4.94" height="2.46"/>
      <rect class="cls-5" x="101.34" y="128.63" width="2.46" height="2.53"/>
      <rect class="cls-6" x="96.45" y="98.97" width="4.89" height="9.83" transform="translate(202.78 5) rotate(90)"/>
      <rect class="cls-6" x="69.2" y="103.91" width="7.52" height="32.19" transform="translate(192.97 47.05) rotate(90)"/>
      <rect class="cls-6" x="74.19" y="111.38" width="2.46" height="27.24" transform="translate(200.42 49.58) rotate(90)"/>
      <rect class="cls-6" x="59.34" y="111.33" width="2.46" height="7.39" transform="translate(175.59 54.45) rotate(90)"/>
      <rect class="cls-6" x="56.79" y="111.4" width="2.63" height="2.46" transform="translate(170.73 54.52) rotate(90)"/>
      <rect class="cls-6" x="49.51" y="113.86" width="7.34" height="2.46" transform="translate(168.26 61.91) rotate(90)"/>
      <rect class="cls-5" x="61.8" y="128.67" width="2.46" height="2.5"/>
      <rect class="cls-5" x="59.34" y="131.14" width="2.46" height="2.5"/>
      <rect class="cls-5" x="56.88" y="133.63" width="2.46" height="2.5"/>
      <rect class="cls-5" x="54.42" y="153.36" width="2.46" height="2.5"/>
      <rect class="cls-5" x="54.42" y="155.83" width="2.46" height="2.5"/>
      <rect class="cls-5" x="56.88" y="155.83" width="2.46" height="2.5"/>
      <rect class="cls-5" x="93.97" y="158.3" width="2.46" height="2.5"/>
      <rect class="cls-5" x="93.97" y="160.75" width="4.93" height="2.5"/>
      <rect class="cls-5" x="93.97" y="131.14" width="2.46" height="2.5"/>
      <rect class="cls-5" x="91.51" y="133.59" width="2.46" height="7.38"/>
      <rect class="cls-4" x="64.27" y="81.71" width="14.86" height="2.51" transform="translate(143.4 165.92) rotate(180)"/>
      <rect class="cls-4" x="64.27" y="84.1" width="12.38" height="2.51" transform="translate(140.92 170.71) rotate(180)"/>
      <rect class="cls-4" x="61.81" y="86.59" width="9.92" height="2.51" transform="translate(133.54 175.69) rotate(180)"/>
      <rect class="cls-4" x="61.78" y="89.05" width="4.96" height="2.51" transform="translate(128.52 180.6) rotate(180)"/>
      <rect class="cls-11" x="89.01" y="81.71" width="7.24" height="2.41" transform="translate(185.27 165.82) rotate(180)"/>
      <rect class="cls-11" x="86.54" y="84.14" width="7.43" height="2.51" transform="translate(180.52 170.79) rotate(180)"/>
      <rect class="cls-11" x="84.07" y="86.62" width="9.91" height="2.51" transform="translate(178.04 175.74) rotate(180)"/>
      <rect class="cls-11" x="81.6" y="89.04" width="12.38" height="2.51" transform="translate(175.57 180.59) rotate(180)"/>
      <rect class="cls-11" x="76.65" y="91.58" width="17.27" height="2.46" transform="translate(170.56 185.62) rotate(180)"/>
      <rect class="cls-4" x="95.17" y="87.82" width="4.97" height="2.51" transform="translate(8.58 186.73) rotate(-90)"/>
      <rect class="cls-4" x="95.14" y="95.25" width="5.02" height="2.51" transform="translate(1.15 194.16) rotate(-90)"/>
      <rect class="cls-4" x="98.87" y="96.49" width="2.51" height="2.51" transform="translate(2.37 197.87) rotate(-90)"/>
      <rect class="cls-11" x="87.66" y="92.96" width="2.78" height="9.91" transform="translate(-8.88 186.96) rotate(-90)"/>
      <rect class="cls-11" x="81.6" y="98.93" width="12.4" height="2.51"/>
      <rect class="cls-11" x="76.66" y="101.42" width="14.87" height="2.47"/>
      <rect class="cls-4" x="59.32" y="96.56" width="14.82" height="2.45"/>
      <rect class="cls-4" x="59.32" y="98.93" width="9.9" height="2.51"/>
      <rect class="cls-4" x="61.81" y="93.98" width="2.51" height="2.57"/>
      <rect class="cls-4" x="51.95" y="106.37" width="7.37" height="2.45" transform="translate(-51.97 163.23) rotate(-90)"/>
      <rect class="cls-4" x="56.88" y="106.37" width="7.36" height="2.47" transform="translate(-47.05 168.16) rotate(-90)"/>
      <rect class="cls-4" x="60.56" y="105.16" width="4.93" height="2.47" transform="translate(-43.37 169.42) rotate(-90)"/>
      <rect class="cls-4" x="64.18" y="106.38" width="5" height="2.47"/>
      <rect class="cls-11" x="81.6" y="106.37" width="9.92" height="2.47"/>
      <rect class="cls-11" x="79.11" y="108.85" width="12.41" height="2.47"/>
      <rect class="cls-11" x="74.18" y="111.29" width="17.34" height="2.47"/>
      <rect class="cls-4" x="84.04" y="121.2" width="17.41" height="2.47" transform="translate(-29.69 215.18) rotate(-90)"/>
      <rect class="cls-4" x="86.57" y="118.76" width="17.28" height="2.47" transform="translate(-24.78 215.2) rotate(-90)"/>
      <rect class="cls-4" x="91.45" y="123.66" width="12.46" height="2.47" transform="translate(-27.22 222.58) rotate(-90)"/>
      <rect class="cls-4" x="97.63" y="127.46" width="4.93" height="2.47" transform="translate(-28.59 228.79) rotate(-90)"/>
      <rect class="cls-4" x="86.57" y="128.66" width="7.38" height="2.51" transform="translate(-39.66 220.17) rotate(-90)"/>
      <rect class="cls-4" x="86.54" y="128.71" width="2.47" height="2.47" transform="translate(-42.18 217.71) rotate(-90)"/>
      <rect class="cls-4" x="66.71" y="128.68" width="14.88" height="2.47"/>
      <rect class="cls-4" x="64.26" y="131.12" width="7.5" height="2.47"/>
      <rect class="cls-4" x="61.8" y="133.57" width="7.45" height="2.47"/>
      <rect class="cls-4" x="59.34" y="136.02" width="7.45" height="2.47"/>
      <rect class="cls-4" x="59.34" y="138.48" width="4.95" height="4.95"/>
      <rect class="cls-4" x="56.83" y="145.87" width="7.56" height="2.54" transform="translate(207.74 86.53) rotate(90)"/>
      <rect class="cls-4" x="54.41" y="148.41" width="7.41" height="2.54" transform="translate(207.79 91.57) rotate(90)"/>
      <rect class="cls-11" x="56.88" y="153.4" width="2.41" height="2.41" transform="translate(116.17 309.21) rotate(180)"/>
      <rect class="cls-4" x="85.31" y="144.77" width="24.73" height="2.46" transform="translate(243.68 48.32) rotate(90)"/>
      <rect class="cls-4" x="91.42" y="143.49" width="7.56" height="2.54" transform="translate(239.96 49.56) rotate(90)"/>
    </g>
  </g>
</svg>