<?xml version="1.0" encoding="UTF-8"?>
<svg id="Layer_2" data-name="Layer 2" xmlns="http://www.w3.org/2000/svg" viewBox="0 0 143.35 173.25">
  <defs>
    <style>
      .cls-1 {
        fill: #781d4f;
      }

      .cls-1, .cls-2, .cls-3, .cls-4, .cls-5, .cls-6, .cls-7, .cls-8, .cls-9, .cls-10, .cls-11 {
        stroke-width: 0px;
      }

      .cls-2 {
        fill: #6a0005;
      }

      .cls-3 {
        fill: #f7931e;
      }

      .cls-4 {
        fill: #310005;
      }

      .cls-5 {
        fill: #4f1d4c;
      }

      .cls-6 {
        fill: red;
      }

      .cls-7 {
        fill: #a60005;
      }

      .cls-8 {
        fill: #fff;
      }

      .cls-9 {
        fill: #e64539;
      }

      .cls-10 {
        fill: #ad2f45;
      }

      .cls-11 {
        fill: #1e0005;
      }
    </style>
  </defs>
  <g id="Layer_1-2" data-name="Layer 1">
    <g>
      <rect class="cls-8" x="98.92" y="14.79" width="2.46" height="2.59"/>
      <rect class="cls-8" x="89" y="17.38" width="9.94" height="2.44"/>
      <rect class="cls-8" x="90.16" y="20.99" width="5.16" height="2.44" transform="translate(114.96 -70.54) rotate(90)"/>
      <rect class="cls-8" x="86.54" y="27.24" width="7.43" height="2.53" transform="translate(118.77 -61.75) rotate(90)"/>
      <rect class="cls-8" x="79.06" y="19.82" width="9.94" height="2.44"/>
      <rect class="cls-8" x="59.36" y="29.78" width="29.88" height="2.44"/>
      <rect class="cls-8" x="74.3" y="27.29" width="9.88" height="2.48"/>
      <rect class="cls-8" x="76.78" y="22.33" width="2.46" height="2.46"/>
      <rect class="cls-8" x="74.3" y="24.79" width="2.46" height="2.69"/>
      <rect class="cls-8" x="59.36" y="27.28" width="2.46" height="2.61"/>
      <rect class="cls-8" x="61.82" y="22.33" width="2.46" height="4.95"/>
      <rect class="cls-8" x="64.28" y="17.38" width="2.46" height="4.83"/>
      <rect class="cls-8" x="66.74" y="9.98" width="2.46" height="9.84"/>
      <rect class="cls-8" x="66.74" y="17.37" width="7.56" height="2.46"/>
      <rect class="cls-8" x="69.2" y="4.92" width="2.46" height="5.06"/>
      <rect class="cls-8" x="71.66" y="2.46" width="5.13" height="2.46"/>
      <rect class="cls-8" x="76.6" width="12.4" height="2.46"/>
      <rect class="cls-8" x="89" y="2.46" width="2.46" height="2.46"/>
      <rect class="cls-8" x="91.52" y="4.92" width="2.46" height="7.52"/>
      <rect class="cls-8" x="93.97" y="12.33" width="4.97" height="2.46"/>
      <rect class="cls-8" x="86.48" y="9.98" width="5.31" height="2.46"/>
      <rect class="cls-8" x="81.38" y="12.34" width="5.45" height="2.46"/>
      <rect class="cls-8" x="74.22" y="14.79" width="7.48" height="2.59"/>
      <rect class="cls-1" x="89.03" y="19.82" width="2.46" height="2.46"/>
      <rect class="cls-1" x="79.24" y="22.33" width="7.34" height="2.46"/>
      <rect class="cls-1" x="76.78" y="24.81" width="2.46" height="2.46"/>
      <rect class="cls-10" x="79.24" y="24.81" width="7.34" height="2.46"/>
      <rect class="cls-10" x="84.18" y="27.3" width="2.3" height="2.46"/>
      <rect class="cls-10" x="86.58" y="22.33" width="2.46" height="2.46"/>
      <rect class="cls-5" x="93.98" y="14.85" width="4.94" height="2.46"/>
      <rect class="cls-5" x="91.47" y="12.44" width="2.46" height="2.46"/>
      <rect class="cls-11" x="81.7" y="14.79" width="12.22" height="2.59"/>
      <rect class="cls-11" x="81.63" y="17.16" width="7.24" height="2.59"/>
      <rect class="cls-11" x="86.83" y="12.44" width="4.69" height="2.59"/>
      <rect class="cls-9" x="88.97" y="22.3" width="2.46" height="2.46"/>
      <rect class="cls-9" x="86.58" y="24.81" width="2.36" height="4.95"/>
      <rect class="cls-7" x="76.78" y="2.46" width="12.19" height="2.46"/>
      <rect class="cls-7" x="89.07" y="4.92" width="2.46" height="2.53"/>
      <rect class="cls-7" x="71.66" y="4.92" width="2.46" height="5.06"/>
      <rect class="cls-7" x="69.2" y="9.98" width="2.46" height="7.4"/>
      <rect class="cls-2" x="84.03" y="4.92" width="5.01" height="2.53"/>
      <rect class="cls-2" x="86.51" y="7.41" width="2.53" height="2.53"/>
      <rect class="cls-2" x="76.6" y="4.92" width="7.5" height="2.53"/>
      <rect class="cls-4" x="72.98" y="11.12" width="4.8" height="2.53" transform="translate(87.77 -63) rotate(90)"/>
      <rect class="cls-7" x="88.95" y="7.41" width="2.53" height="2.53"/>
      <rect class="cls-7" x="74.12" y="4.92" width="2.53" height="2.53"/>
      <rect class="cls-2" x="71.62" y="9.95" width="2.53" height="7.43"/>
      <rect class="cls-4" x="76.6" y="7.41" width="9.88" height="2.53"/>
      <rect class="cls-4" x="76.6" y="9.77" width="9.88" height="2.53"/>
      <rect class="cls-4" x="76.6" y="12.29" width="4.78" height="2.53"/>
      <rect class="cls-7" x="66.74" y="19.78" width="2.53" height="2.53"/>
      <rect class="cls-7" x="64.28" y="22.27" width="2.46" height="5.03"/>
      <rect class="cls-7" x="61.82" y="27.26" width="2.46" height="2.53"/>
      <rect class="cls-2" x="69.26" y="19.78" width="2.53" height="2.53"/>
      <rect class="cls-2" x="66.7" y="22.27" width="2.53" height="5.03"/>
      <rect class="cls-2" x="64.24" y="27.26" width="2.53" height="2.53"/>
      <rect class="cls-2" x="74.09" y="7.41" width="2.53" height="2.53"/>
      <rect class="cls-4" x="71.79" y="19.78" width="2.53" height="2.53" transform="translate(94.1 -52.01) rotate(90)"/>
      <rect class="cls-4" x="68.02" y="23.53" width="5" height="2.53" transform="translate(95.32 -45.73) rotate(90)"/>
      <rect class="cls-4" x="66.74" y="27.26" width="2.53" height="2.53" transform="translate(96.53 -39.48) rotate(90)"/>
      <rect class="cls-4" x="74.37" y="17.33" width="2.44" height="2.53" transform="translate(94.18 -56.99) rotate(90)"/>
      <rect class="cls-11" x="69.34" y="24.78" width="7.43" height="2.53" transform="translate(99.1 -47.01) rotate(90)"/>
      <rect class="cls-11" x="73.06" y="21.01" width="5.06" height="2.53" transform="translate(97.87 -53.31) rotate(90)"/>
      <rect class="cls-11" x="69.26" y="27.28" width="2.53" height="2.53" transform="translate(99.07 -41.97) rotate(90)"/>
      <rect class="cls-11" x="75.57" y="18.66" width="4.95" height="2.39" transform="translate(97.9 -58.19) rotate(90)"/>
      <rect class="cls-11" x="79.24" y="17.38" width="2.39" height="2.39" transform="translate(99.01 -61.86) rotate(90)"/>
      <rect class="cls-8" x="56.91" y="32.25" width="2.46" height="29.57"/>
      <rect class="cls-8" x="91.52" y="32.25" width="2.46" height="29.57"/>
      <rect class="cls-6" x="74.35" y="24.64" width="2.46" height="32.43" transform="translate(116.44 -34.72) rotate(90)"/>
      <rect class="cls-6" x="74.36" y="34.52" width="2.46" height="32.43" transform="translate(126.32 -24.85) rotate(90)"/>
      <rect class="cls-11" x="86.58" y="34.69" width="4.89" height="4.89" transform="translate(126.16 -51.88) rotate(90)"/>
      <rect class="cls-11" x="84.09" y="37.08" width="2.48" height="2.53" transform="translate(123.67 -46.99) rotate(90)"/>
      <rect class="cls-7" x="84.06" y="34.69" width="2.53" height="2.41"/>
      <rect class="cls-7" x="76.6" y="37.16" width="7.58" height="2.41"/>
      <rect class="cls-2" x="77.92" y="30.92" width="2.45" height="9.99" transform="translate(115.06 -43.23) rotate(90)"/>
      <rect class="cls-2" x="71.73" y="34.72" width="2.45" height="7.29" transform="translate(111.32 -34.59) rotate(90)"/>
      <rect class="cls-4" x="59.37" y="34.69" width="14.92" height="2.49" transform="translate(133.66 71.87) rotate(180)"/>
      <rect class="cls-4" x="59.37" y="37.18" width="9.89" height="2.49" transform="translate(128.62 76.85) rotate(180)"/>
      <rect class="cls-11" x="85.3" y="43.35" width="7.42" height="4.89" transform="translate(134.8 -43.21) rotate(90)"/>
      <rect class="cls-11" x="82.81" y="45.73" width="5.01" height="2.53" transform="translate(132.31 -38.31) rotate(90)"/>
      <rect class="cls-7" x="84.04" y="42.09" width="2.53" height="2.41"/>
      <rect class="cls-7" x="76.58" y="44.56" width="7.58" height="2.41"/>
      <rect class="cls-2" x="77.9" y="38.32" width="2.45" height="9.99" transform="translate(122.44 -35.82) rotate(90)"/>
      <rect class="cls-2" x="71.71" y="42.12" width="2.45" height="7.29" transform="translate(118.69 -27.17) rotate(90)"/>
      <rect class="cls-4" x="59.35" y="42.09" width="14.92" height="2.49" transform="translate(133.62 86.66) rotate(180)"/>
      <rect class="cls-4" x="59.35" y="44.58" width="9.89" height="2.49" transform="translate(128.58 91.64) rotate(180)"/>
      <rect class="cls-11" x="85.33" y="53.19" width="7.35" height="4.89" transform="translate(144.64 -33.37) rotate(90)"/>
      <rect class="cls-11" x="82.79" y="55.62" width="5.04" height="2.53" transform="translate(142.2 -28.42) rotate(90)"/>
      <rect class="cls-7" x="84.04" y="51.96" width="2.53" height="2.41"/>
      <rect class="cls-7" x="76.58" y="54.43" width="7.58" height="2.41"/>
      <rect class="cls-2" x="77.9" y="48.19" width="2.45" height="9.99" transform="translate(132.31 -25.94) rotate(90)"/>
      <rect class="cls-2" x="71.71" y="51.99" width="2.45" height="7.29" transform="translate(128.57 -17.3) rotate(90)"/>
      <rect class="cls-4" x="59.35" y="51.96" width="14.92" height="2.49" transform="translate(133.62 106.41) rotate(180)"/>
      <rect class="cls-4" x="59.35" y="54.45" width="9.89" height="2.49" transform="translate(128.58 111.39) rotate(180)"/>
      <rect class="cls-11" x="81.64" y="47" width="2.53" height="2.53" transform="translate(131.17 -34.64) rotate(90)"/>
      <rect class="cls-7" x="74.27" y="46.96" width="7.46" height="2.51"/>
      <rect class="cls-2" x="68.09" y="43.26" width="2.45" height="9.92" transform="translate(117.53 -21.09) rotate(90)"/>
      <rect class="cls-4" x="59.34" y="47.02" width="4.94" height="2.51" transform="translate(123.62 96.55) rotate(180)"/>
      <rect class="cls-11" x="81.64" y="56.87" width="2.53" height="2.53" transform="translate(141.05 -24.77) rotate(90)"/>
      <rect class="cls-7" x="74.27" y="56.84" width="7.46" height="2.51"/>
      <rect class="cls-2" x="68.09" y="53.13" width="2.45" height="9.92" transform="translate(127.4 -11.22) rotate(90)"/>
      <rect class="cls-4" x="59.34" y="56.9" width="4.94" height="2.51" transform="translate(123.62 116.3) rotate(180)"/>
      <rect class="cls-6" x="74.15" y="17.26" width="2.46" height="32.43" transform="translate(108.86 -41.9) rotate(90)"/>
      <rect class="cls-6" x="74.36" y="44.44" width="2.46" height="32.43" transform="translate(136.24 -14.93) rotate(90)"/>
      <rect class="cls-8" x="93.98" y="37.16" width="2.46" height="9.8"/>
      <rect class="cls-8" x="96.43" y="47.06" width="2.46" height="12.37"/>
      <rect class="cls-8" x="98.89" y="59.43" width="2.46" height="17.3"/>
      <rect class="cls-8" x="103.81" y="69.26" width="9.92" height="2.46"/>
      <rect class="cls-8" x="113.73" y="66.85" width="2.46" height="2.46"/>
      <rect class="cls-8" x="116.19" y="69.37" width="2.46" height="12.29"/>
      <rect class="cls-8" x="118.65" y="71.83" width="7.41" height="2.46"/>
      <rect class="cls-8" x="126.06" y="69.26" width="9.89" height="2.46"/>
      <rect class="cls-8" x="135.95" y="66.85" width="7.41" height="2.46"/>
      <rect class="cls-8" x="140.89" y="69.26" width="2.46" height="2.46"/>
      <rect class="cls-8" x="135.95" y="71.83" width="7.41" height="2.46"/>
      <rect class="cls-8" x="126.06" y="74.28" width="9.89" height="2.46"/>
      <rect class="cls-8" x="118.65" y="76.74" width="7.41" height="2.46"/>
      <rect class="cls-8" x="113.73" y="81.65" width="2.46" height="2.46"/>
      <rect class="cls-8" x="106.31" y="79.19" width="7.42" height="2.46"/>
      <rect class="cls-8" x="111.27" y="71.71" width="2.46" height="7.48"/>
      <rect class="cls-8" x="96.25" y="81.65" width="10.19" height="2.46"/>
      <rect class="cls-8" x="47.03" y="79.24" width="49.4" height="2.46"/>
      <rect class="cls-8" x="24.78" y="76.78" width="22.25" height="2.46"/>
      <rect class="cls-8" x="24.78" y="71.77" width="22.25" height="2.46"/>
      <rect class="cls-8" x="9.9" y="74.32" width="14.88" height="2.46"/>
      <rect class="cls-8" x="2.46" y="71.86" width="7.44" height="2.46"/>
      <rect class="cls-8" y="69.24" width="2.46" height="2.46"/>
      <rect class="cls-8" x="2.46" y="66.85" width="7.44" height="2.46"/>
      <rect class="cls-8" x="9.9" y="69.31" width="14.88" height="2.46"/>
      <rect class="cls-8" x="47.03" y="74.23" width="19.71" height="2.46"/>
      <rect class="cls-8" x="61.81" y="64.36" width="2.46" height="9.98"/>
      <rect class="cls-8" x="59.34" y="61.89" width="32.11" height="2.46"/>
      <rect class="cls-8" x="93.98" y="59.43" width="2.46" height="2.39"/>
      <rect class="cls-8" x="89.02" y="64.35" width="2.46" height="2.46"/>
      <rect class="cls-8" x="86.6" y="66.8" width="2.46" height="2.46"/>
      <rect class="cls-8" x="81.61" y="69.26" width="7.45" height="2.46"/>
      <rect class="cls-8" x="76.68" y="66.8" width="4.88" height="2.46"/>
      <rect class="cls-8" x="74.2" y="64.35" width="2.46" height="2.46"/>
      <rect class="cls-8" x="69.3" y="66.8" width="4.91" height="2.46"/>
      <rect class="cls-8" x="66.84" y="69.35" width="2.46" height="2.46"/>
      <rect class="cls-8" x="64.27" y="71.88" width="2.46" height="2.46"/>
      <rect class="cls-8" x="66.74" y="76.69" width="9.89" height="2.46"/>
      <rect class="cls-8" x="89.06" y="71.83" width="10.04" height="2.46"/>
      <rect class="cls-8" x="96.43" y="76.73" width="2.46" height="2.46"/>
      <rect class="cls-7" x="96.43" y="59.43" width="2.46" height="7.38"/>
      <rect class="cls-7" x="86.6" y="71.79" width="2.46" height="2.46"/>
      <rect class="cls-7" x="76.72" y="69.35" width="2.46" height="2.46"/>
      <rect class="cls-7" x="74.2" y="66.8" width="2.46" height="2.46"/>
      <rect class="cls-2" x="93.98" y="47.05" width="2.46" height="12.36"/>
      <rect class="cls-2" x="91.52" y="61.85" width="4.99" height="4.99"/>
      <rect class="cls-2" x="96.51" y="66.8" width="2.32" height="4.99"/>
      <rect class="cls-2" x="86.67" y="74.19" width="12.16" height="2.51"/>
      <rect class="cls-2" x="76.61" y="71.9" width="10.06" height="2.32"/>
      <rect class="cls-2" x="69.31" y="69.33" width="7.4" height="2.49"/>
      <rect class="cls-2" x="79.18" y="69.45" width="2.44" height="2.44"/>
      <rect class="cls-5" x="103.87" y="71.71" width="7.41" height="7.41"/>
      <rect class="cls-5" x="96.43" y="79.12" width="9.96" height="2.53"/>
      <rect class="cls-5" x="98.83" y="76.69" width="5.1" height="2.53"/>
      <rect class="cls-5" x="101.41" y="74.29" width="2.53" height="2.53"/>
      <rect class="cls-5" x="64.28" y="64.36" width="9.92" height="2.53"/>
      <rect class="cls-5" x="64.28" y="66.77" width="5.03" height="2.53"/>
      <rect class="cls-5" x="64.28" y="69.32" width="2.53" height="2.53"/>
      <rect class="cls-4" x="76.66" y="64.31" width="12.31" height="2.53"/>
      <rect class="cls-4" x="81.56" y="66.77" width="5.04" height="2.53"/>
      <rect class="cls-4" x="89.06" y="66.82" width="7.44" height="5"/>
      <rect class="cls-4" x="66.79" y="71.79" width="9.82" height="4.89"/>
      <rect class="cls-4" x="76.66" y="74.23" width="9.94" height="4.95"/>
      <rect class="cls-4" x="86.54" y="76.69" width="9.89" height="2.53"/>
      <rect class="cls-6" x="137.2" y="67.98" width="2.48" height="4.99" transform="translate(208.92 -67.97) rotate(90)"/>
      <rect class="cls-6" x="129.79" y="68.09" width="2.48" height="9.93" transform="translate(204.08 -57.97) rotate(90)"/>
      <rect class="cls-6" x="121.12" y="71.8" width="2.48" height="7.41" transform="translate(197.86 -46.84) rotate(90)"/>
      <rect class="cls-3" x="108.78" y="74.24" width="12.32" height="2.5" transform="translate(190.43 -39.45) rotate(90)"/>
      <rect class="cls-11" x="55.64" y="68.16" width="2.48" height="19.7" transform="translate(134.89 21.13) rotate(90)"/>
      <rect class="cls-11" x="34.67" y="64.43" width="2.48" height="22.25" transform="translate(111.46 39.65) rotate(90)"/>
      <rect class="cls-11" x="16.1" y="65.56" width="2.48" height="14.88" transform="translate(90.34 55.66) rotate(90)"/>
      <rect class="cls-11" x="4.92" y="66.85" width="2.48" height="7.39" transform="translate(76.69 64.39) rotate(90)"/>
      <rect class="cls-8" x="101.35" y="71.71" width="2.46" height="2.46"/>
      <rect class="cls-8" x="101.35" y="84.11" width="2.46" height="7.45"/>
      <rect class="cls-8" x="103.81" y="91.56" width="2.46" height="17.31"/>
      <rect class="cls-8" x="101.35" y="108.87" width="2.46" height="4.98"/>
      <rect class="cls-8" x="103.81" y="113.87" width="2.46" height="14.79"/>
      <rect class="cls-8" x="101.35" y="128.66" width="2.46" height="2.46"/>
      <rect class="cls-8" x="98.89" y="131.12" width="2.46" height="2.46"/>
      <rect class="cls-8" x="96.43" y="133.58" width="2.46" height="32.17"/>
      <rect class="cls-8" x="98.89" y="165.75" width="4.89" height="2.46"/>
      <rect class="cls-8" x="103.78" y="168.21" width="7.42" height="2.46"/>
      <rect class="cls-8" x="111.19" y="170.72" width="2.46" height="2.46"/>
      <rect class="cls-8" x="88.95" y="165.75" width="2.46" height="7.43"/>
      <rect class="cls-8" x="86.54" y="160.81" width="2.41" height="4.94"/>
      <rect class="cls-8" x="88.95" y="151.01" width="2.46" height="9.8"/>
      <rect class="cls-8" x="86.5" y="143.5" width="2.45" height="7.51"/>
      <rect class="cls-8" x="84.04" y="136.09" width="2.46" height="7.42"/>
      <rect class="cls-8" x="86.5" y="133.63" width="2.46" height="2.46"/>
      <rect class="cls-8" x="84.04" y="131.17" width="2.46" height="2.46"/>
      <rect class="cls-8" x="81.58" y="128.71" width="2.46" height="2.46"/>
      <rect class="cls-8" x="79.13" y="131.17" width="2.46" height="4.92"/>
      <rect class="cls-8" x="76.61" y="136.09" width="2.51" height="7.41"/>
      <rect class="cls-8" x="74.12" y="143.51" width="2.46" height="12.4"/>
      <rect class="cls-8" x="76.58" y="155.91" width="2.46" height="4.9"/>
      <rect class="cls-8" x="79.04" y="160.81" width="2.46" height="2.46"/>
      <rect class="cls-8" x="81.5" y="163.28" width="2.46" height="2.46"/>
      <rect class="cls-8" x="83.96" y="165.75" width="2.59" height="2.46"/>
      <rect class="cls-8" x="76.58" y="168.21" width="9.96" height="2.49"/>
      <rect class="cls-8" x="71.65" y="165.75" width="4.93" height="2.46"/>
      <rect class="cls-8" x="66.74" y="163.28" width="4.91" height="2.46"/>
      <rect class="cls-8" x="64.28" y="150.94" width="2.46" height="12.33"/>
      <rect class="cls-8" x="66.74" y="138.56" width="2.46" height="12.38"/>
      <rect class="cls-8" x="64.28" y="131.17" width="2.46" height="7.39"/>
      <rect class="cls-8" x="66.74" y="128.71" width="2.46" height="2.46"/>
      <rect class="cls-8" x="69.2" y="126.26" width="2.46" height="2.46"/>
      <rect class="cls-8" x="61.78" y="123.72" width="12.34" height="2.53"/>
      <rect class="cls-8" x="54.32" y="121.27" width="7.45" height="2.46"/>
      <rect class="cls-8" x="51.87" y="111.3" width="2.49" height="9.97"/>
      <rect class="cls-8" x="54.32" y="96.49" width="2.46" height="14.89"/>
      <rect class="cls-8" x="56.78" y="86.66" width="2.46" height="9.83"/>
      <rect class="cls-8" x="59.24" y="81.7" width="2.46" height="4.96"/>
      <rect class="cls-8" x="96.25" y="84.11" width="2.46" height="19.78"/>
      <rect class="cls-8" x="98.71" y="101.43" width="5.1" height="2.46"/>
      <rect class="cls-8" x="98.71" y="94.06" width="5.16" height="2.46"/>
      <rect class="cls-8" x="64.28" y="81.72" width="2.46" height="4.94"/>
      <rect class="cls-8" x="61.7" y="86.66" width="2.58" height="9.83"/>
      <rect class="cls-8" x="59.24" y="96.49" width="2.46" height="14.89"/>
      <rect class="cls-8" x="56.78" y="111.3" width="2.46" height="9.97"/>
      <rect class="cls-8" x="64.28" y="89.12" width="2.46" height="2.46"/>
      <rect class="cls-8" x="66.74" y="91.6" width="7.32" height="2.46"/>
      <rect class="cls-8" x="74.06" y="94.06" width="22.19" height="2.46"/>
      <rect class="cls-8" x="61.7" y="99.02" width="2.46" height="2.46"/>
      <rect class="cls-8" x="64.16" y="101.48" width="9.9" height="2.46"/>
      <rect class="cls-8" x="74.06" y="103.89" width="22.36" height="2.5"/>
      <rect class="cls-8" x="96.42" y="108.87" width="5.07" height="2.46"/>
      <rect class="cls-8" x="93.96" y="106.29" width="2.46" height="7.58"/>
      <rect class="cls-8" x="61.48" y="108.92" width="2.75" height="2.46"/>
      <rect class="cls-8" x="64.16" y="111.37" width="9.95" height="2.46"/>
      <rect class="cls-8" x="74.11" y="113.87" width="19.85" height="2.46"/>
      <rect class="cls-8" x="91.5" y="116.33" width="2.46" height="9.93"/>
      <rect class="cls-8" x="74.11" y="126.26" width="17.39" height="2.46"/>
      <rect class="cls-8" x="71.65" y="128.66" width="2.46" height="2.46"/>
      <rect class="cls-8" x="69.2" y="131.17" width="2.46" height="7.39"/>
      <rect class="cls-8" x="88.95" y="131.17" width="2.56" height="2.46"/>
      <rect class="cls-8" x="91.41" y="133.58" width="5.15" height="2.52"/>
      <rect class="cls-8" x="88.96" y="136.1" width="2.46" height="7.41"/>
      <rect class="cls-8" x="69.2" y="150.94" width="2.46" height="2.46"/>
      <rect class="cls-8" x="71.65" y="153.45" width="2.69" height="2.46"/>
      <rect class="cls-8" x="66.74" y="155.87" width="4.92" height="2.46"/>
      <rect class="cls-8" x="91.46" y="160.81" width="2.46" height="2.46"/>
      <rect class="cls-8" x="93.92" y="163.28" width="2.92" height="2.47"/>
      <rect class="cls-8" x="91.41" y="165.75" width="2.51" height="2.46"/>
      <rect class="cls-6" x="72.9" y="102.66" width="4.95" height="32.26" transform="translate(194.16 43.42) rotate(90)"/>
      <rect class="cls-6" x="65.42" y="107.69" width="2.46" height="14.82" transform="translate(181.75 48.45) rotate(90)"/>
      <rect class="cls-6" x="60.51" y="110.1" width="2.5" height="5.04" transform="translate(174.38 50.86) rotate(90)"/>
      <rect class="cls-6" x="50.65" y="115.1" width="9.87" height="2.46" transform="translate(171.92 60.74) rotate(90)"/>
      <rect class="cls-6" x="75.22" y="107.47" width="2.81" height="29.74" transform="translate(198.97 45.71) rotate(90)"/>
      <rect class="cls-6" x="81.56" y="116.31" width="2.5" height="17.39" transform="translate(207.81 42.2) rotate(90)"/>
      <rect class="cls-6" x="97.64" y="102.71" width="4.96" height="7.37" transform="translate(206.51 6.27) rotate(90)"/>
      <rect class="cls-5" x="71.65" y="126.26" width="2.46" height="2.46"/>
      <rect class="cls-5" x="69.2" y="128.75" width="2.46" height="2.46"/>
      <rect class="cls-5" x="66.74" y="131.17" width="2.46" height="7.39"/>
      <rect class="cls-5" x="88.95" y="133.61" width="2.46" height="2.46"/>
      <rect class="cls-5" x="86.5" y="136.07" width="2.46" height="7.43"/>
      <rect class="cls-5" x="66.74" y="150.94" width="2.46" height="4.94"/>
      <rect class="cls-5" x="69.2" y="153.45" width="2.46" height="2.46"/>
      <rect class="cls-5" x="88.95" y="160.81" width="2.46" height="4.93"/>
      <rect class="cls-5" x="91.36" y="163.28" width="2.53" height="2.46"/>
      <rect class="cls-7" x="98.71" y="84.11" width="2.64" height="5.01"/>
      <rect class="cls-7" x="101.31" y="91.56" width="2.53" height="2.5"/>
      <rect class="cls-7" x="89" y="81.68" width="2.53" height="2.53"/>
      <rect class="cls-7" x="86.46" y="84.08" width="2.53" height="2.53"/>
      <rect class="cls-7" x="81.54" y="86.61" width="4.98" height="2.53"/>
      <rect class="cls-7" x="74.06" y="89.15" width="7.48" height="2.46"/>
      <rect class="cls-7" x="59.24" y="89.11" width="2.46" height="2.53"/>
      <rect class="cls-7" x="86.44" y="96.52" width="2.53" height="2.53"/>
      <rect class="cls-7" x="81.47" y="99" width="5.04" height="2.53"/>
      <rect class="cls-7" x="76.54" y="101.48" width="5.01" height="2.41"/>
      <rect class="cls-7" x="101.31" y="96.52" width="2.5" height="4.92"/>
      <rect class="cls-7" x="56.77" y="101.42" width="2.48" height="9.88"/>
      <rect class="cls-7" x="81.53" y="106.44" width="2.53" height="2.53"/>
      <rect class="cls-7" x="76.63" y="108.83" width="5.08" height="2.53"/>
      <rect class="cls-7" x="74.1" y="111.3" width="2.53" height="2.53"/>
      <rect class="cls-2" x="84.03" y="79.22" width="2.45" height="7.44" transform="translate(168.2 -2.31) rotate(90)"/>
      <rect class="cls-2" x="80.35" y="80.45" width="2.45" height="9.88" transform="translate(166.97 3.82) rotate(90)"/>
      <rect class="cls-2" x="74.08" y="81.69" width="2.53" height="12.38" transform="translate(163.23 12.53) rotate(90)"/>
      <rect class="cls-2" x="69.15" y="86.7" width="2.48" height="7.3" transform="translate(160.75 19.96) rotate(90)"/>
      <rect class="cls-2" x="61.7" y="81.71" width="2.57" height="4.96" transform="translate(125.97 168.37) rotate(180)"/>
      <rect class="cls-2" x="59.24" y="86.66" width="2.45" height="2.45" transform="translate(148.34 27.42) rotate(90)"/>
      <rect class="cls-2" x="80.3" y="92.87" width="2.47" height="9.8" transform="translate(179.31 16.24) rotate(90)"/>
      <rect class="cls-2" x="74.03" y="94.08" width="2.49" height="12.33" transform="translate(175.52 24.97) rotate(90)"/>
      <rect class="cls-2" x="74.08" y="101.43" width="2.43" height="2.49" transform="translate(177.98 27.38) rotate(90)"/>
      <rect class="cls-2" x="74.12" y="101.4" width="2.45" height="12.42" transform="translate(182.95 32.26) rotate(90)"/>
      <rect class="cls-2" x="69.16" y="103.9" width="2.55" height="12.4" transform="translate(180.53 39.67) rotate(90)"/>
      <rect class="cls-11" x="87.72" y="85.53" width="12.34" height="4.72" transform="translate(181.78 -6) rotate(90)"/>
      <rect class="cls-11" x="81.54" y="84.07" width="2.5" height="17.48" transform="translate(175.6 10.03) rotate(90)"/>
      <rect class="cls-11" x="89" y="84.21" width="2.5" height="2.5" transform="translate(175.7 -4.78) rotate(90)"/>
      <rect class="cls-11" x="87.8" y="85.32" width="2.5" height="5.13" transform="translate(176.92 -1.16) rotate(90)"/>
      <rect class="cls-11" x="85.32" y="85.36" width="2.5" height="10.07" transform="translate(176.97 3.82) rotate(90)"/>
      <rect class="cls-11" x="87.67" y="95.37" width="2.38" height="14.7" transform="translate(191.58 13.87) rotate(90)"/>
      <rect class="cls-11" x="90.12" y="95.38" width="2.5" height="9.77" transform="translate(191.64 8.9) rotate(90)"/>
      <rect class="cls-11" x="91.37" y="94.15" width="2.5" height="7.28" transform="translate(190.4 5.17) rotate(90)"/>
      <rect class="cls-11" x="98.71" y="89.14" width="2.64" height="4.87" transform="translate(200.06 183.14) rotate(180)"/>
      <rect class="cls-11" x="98.71" y="96.52" width="2.55" height="4.92" transform="translate(199.97 197.95) rotate(180)"/>
      <rect class="cls-11" x="84.05" y="103.94" width="2.5" height="17.33" transform="translate(197.9 27.31) rotate(90)"/>
      <rect class="cls-11" x="86.56" y="104.07" width="2.5" height="12.3" transform="translate(198.03 22.41) rotate(90)"/>
      <rect class="cls-11" x="87.73" y="102.73" width="2.56" height="9.89" transform="translate(196.69 18.65) rotate(90)"/>
      <rect class="cls-4" x="66.69" y="81.69" width="14.76" height="2.51" transform="translate(148.13 165.89) rotate(180)"/>
      <rect class="cls-4" x="66.69" y="84.09" width="9.85" height="2.51" transform="translate(143.23 170.7) rotate(180)"/>
      <rect class="cls-4" x="64.27" y="86.59" width="4.94" height="2.51" transform="translate(133.48 175.69) rotate(180)"/>
      <rect class="cls-4" x="64.27" y="91.58" width="2.51" height="2.51" transform="translate(131.05 185.66) rotate(180)"/>
      <rect class="cls-4" x="64.27" y="94.05" width="9.78" height="2.51" transform="translate(138.31 190.6) rotate(180)"/>
      <rect class="cls-4" x="61.69" y="96.52" width="14.95" height="2.48" transform="translate(138.32 195.52) rotate(180)"/>
      <rect class="cls-4" x="64.16" y="98.92" width="4.94" height="2.55" transform="translate(133.26 200.38) rotate(180)"/>
      <rect class="cls-4" x="61.7" y="101.49" width="2.51" height="2.51" transform="translate(125.91 205.5) rotate(180)"/>
      <rect class="cls-4" x="61.7" y="103.94" width="12.35" height="2.45" transform="translate(135.75 210.33) rotate(180)"/>
      <rect class="cls-4" x="61.69" y="106.4" width="7.45" height="2.51" transform="translate(130.82 215.32) rotate(180)"/>
      <rect class="cls-4" x="58.02" y="92.81" width="4.87" height="2.48" transform="translate(-33.6 154.51) rotate(-90)"/>
      <rect class="cls-4" x="55.54" y="97.71" width="4.94" height="2.48" transform="translate(-40.94 156.96) rotate(-90)"/>
      <rect class="cls-4" x="96.42" y="111.35" width="4.94" height="2.51" transform="translate(197.78 225.21) rotate(180)"/>
      <rect class="cls-4" x="93.96" y="113.85" width="9.84" height="2.53" transform="translate(197.77 230.23) rotate(180)"/>
      <rect class="cls-4" x="93.96" y="116.32" width="7.38" height="2.51" transform="translate(195.31 235.15) rotate(180)"/>
      <rect class="cls-4" x="93.96" y="118.83" width="4.92" height="9.88" transform="translate(192.85 247.55) rotate(180)"/>
      <rect class="cls-4" x="91.51" y="126.26" width="4.82" height="7.32" transform="translate(187.84 259.83) rotate(180)"/>
      <rect class="cls-4" x="84.03" y="128.69" width="7.48" height="2.43" transform="translate(175.54 259.81) rotate(180)"/>
      <rect class="cls-4" x="86.48" y="131.15" width="2.47" height="2.47" transform="translate(175.43 264.77) rotate(180)"/>
      <rect class="cls-5" x="101.26" y="116.27" width="2.53" height="12.4"/>
      <rect class="cls-5" x="93.97" y="123.74" width="12.29" height="2.46" transform="translate(225.09 24.86) rotate(90)"/>
      <rect class="cls-5" x="95.21" y="129.9" width="4.86" height="2.49" transform="translate(228.79 33.5) rotate(90)"/>
      <rect class="cls-2" x="93.9" y="136.16" width="2.48" height="27.13"/>
      <rect class="cls-4" x="69.2" y="138.56" width="2.53" height="12.45"/>
      <rect class="cls-2" x="71.62" y="140.9" width="2.53" height="12.49"/>
      <rect class="cls-2" x="74.09" y="136.08" width="2.53" height="7.44"/>
      <rect class="cls-2" x="79.09" y="128.69" width="2.53" height="2.43"/>
      <rect class="cls-4" x="71.62" y="131.12" width="2.53" height="9.82"/>
      <rect class="cls-4" x="74.09" y="128.67" width="2.53" height="7.36"/>
      <rect class="cls-4" x="76.6" y="128.68" width="2.53" height="2.53"/>
      <rect class="cls-4" x="91.42" y="136.07" width="2.53" height="24.74"/>
      <rect class="cls-4" x="88.96" y="143.53" width="2.53" height="7.46"/>
      <rect class="cls-2" x="100.04" y="162.1" width="2.53" height="19.78" transform="translate(273.29 70.68) rotate(90)"/>
      <rect class="cls-2" x="96.3" y="163.28" width="2.53" height="12.41" transform="translate(267.06 71.92) rotate(90)"/>
      <rect class="cls-2" x="95.48" y="164.13" width="2.53" height="5.69" transform="translate(263.72 70.24) rotate(90)"/>
      <rect class="cls-2" x="79" y="163.29" width="2.53" height="7.38" transform="translate(247.25 86.71) rotate(90)"/>
      <rect class="cls-2" x="75.31" y="159.6" width="2.53" height="9.84" transform="translate(241.1 87.94) rotate(90)"/>
      <rect class="cls-2" x="71.62" y="155.89" width="2.53" height="12.3" transform="translate(234.93 89.15) rotate(90)"/>
      <rect class="cls-2" x="70.39" y="154.7" width="2.53" height="9.85" transform="translate(231.29 87.97) rotate(90)"/>
      <rect class="cls-2" x="72.81" y="154.75" width="2.61" height="4.93" transform="translate(231.33 83.1) rotate(90)"/>
    </g>
  </g>
</svg>